<svg width="500" height="500" viewBox="0 0 500 500" fill="none" xmlns="http://www.w3.org/2000/svg">
<g filter="url(#filter0_b_129_11)">
<path d="M356.909 104H142.091L105 142.164V356.836L142.091 395H356.909L394 356.836V142.164L356.909 104Z" fill="white" fill-opacity="0.69"/>
<path d="M356.909 104H142.091L105 142.164V356.836L142.091 395H356.909L394 356.836V142.164L356.909 104Z" stroke="black" stroke-width="4"/>
</g>
<path d="M210.833 220.095C210.833 189.577 236.944 180.888 250 180.358V220.095H210.833Z" fill="black"/>
<path d="M250 180.358H250.5V179.837L249.98 179.858L250 180.358ZM210.833 220.095H210.333V220.595H210.833V220.095ZM250 220.095V220.595H250.5V220.095H250ZM203.5 221.684C203.5 195.618 224.326 174.5 250 174.5V173.5C223.76 173.5 202.5 195.08 202.5 221.684H203.5ZM250 174.5C275.674 174.5 296.5 195.618 296.5 221.684H297.5C297.5 195.08 276.24 173.5 250 173.5V174.5ZM296.5 277.316C296.5 303.382 275.674 324.5 250 324.5V325.5C276.24 325.5 297.5 303.92 297.5 277.316H296.5ZM250 324.5C224.326 324.5 203.5 303.382 203.5 277.316H202.5C202.5 303.92 223.76 325.5 250 325.5V324.5ZM296.5 221.684V277.316H297.5V221.684H296.5ZM203.5 277.316V221.684H202.5V277.316H203.5ZM249.98 179.858C243.374 180.126 233.48 182.454 225.223 188.579C216.943 194.721 210.333 204.669 210.333 220.095H211.333C211.333 205.003 217.779 195.347 225.819 189.382C233.881 183.401 243.57 181.119 250.02 180.857L249.98 179.858ZM210.833 220.595H250V219.595H210.833V220.595ZM250.5 220.095V180.358H249.5V220.095H250.5Z" fill="black"/>
<defs>
<filter id="filter0_b_129_11" x="97" y="96" width="305" height="307" filterUnits="userSpaceOnUse" color-interpolation-filters="sRGB">
<feFlood flood-opacity="0" result="BackgroundImageFix"/>
<feGaussianBlur in="BackgroundImage" stdDeviation="3"/>
<feComposite in2="SourceAlpha" operator="in" result="effect1_backgroundBlur_129_11"/>
<feBlend mode="normal" in="SourceGraphic" in2="effect1_backgroundBlur_129_11" result="shape"/>
</filter>
</defs>
</svg>
