<svg width="500" height="500" viewBox="0 0 500 500" fill="none" xmlns="http://www.w3.org/2000/svg">
<path fill-rule="evenodd" clip-rule="evenodd" d="M91.9273 40H408.073L460 93.4295V406.57L408.073 460H91.9273L40 406.57V93.4295L91.9273 40ZM120.655 78H380.345L423 121.889V379.111L380.345 423H120.655L78 379.111V121.889L120.655 78Z" fill="#FFC825" fill-opacity="0.69"/>
<path fill-rule="evenodd" clip-rule="evenodd" d="M120.655 78H380.345L423 121.889V379.111L380.345 423H120.655L78 379.111V121.889L120.655 78ZM137.091 100H362.909L400 138.164V361.836L362.909 400H137.091L100 361.836V138.164L137.091 100Z" fill="#FF5000" fill-opacity="0.69"/>
<path d="M362.909 100H137.091L100 138.164V361.836L137.091 400H362.909L400 361.836V138.164L362.909 100Z" fill="white" fill-opacity="0.69" stroke="black" stroke-width="10"/>
<mask id="path-4-outside-1_186_36" maskUnits="userSpaceOnUse" x="196" y="168" width="108" height="165" fill="black">
<rect fill="white" x="196" y="168" width="108" height="165"/>
<path d="M250 175C224.043 175 203 196.349 203 222.684V278.316C203 304.651 224.043 326 250 326C275.957 326 297 304.651 297 278.316V222.684C297 196.349 275.957 175 250 175Z"/>
</mask>
<path d="M210 222.684C210 200.119 228.004 182 250 182V168C220.082 168 196 192.579 196 222.684H210ZM250 182C271.996 182 290 200.119 290 222.684H304C304 192.579 279.918 168 250 168V182ZM290 278.316C290 300.881 271.996 319 250 319V333C279.918 333 304 308.421 304 278.316H290ZM250 319C228.004 319 210 300.881 210 278.316H196C196 308.421 220.082 333 250 333V319ZM290 222.684V278.316H304V222.684H290ZM210 278.316V222.684H196V278.316H210Z" fill="black" mask="url(#path-4-outside-1_186_36)"/>
<path d="M210.833 221.094C210.833 190.576 236.944 181.887 250 181.357V221.094H210.833Z" fill="black"/>
<path d="M250 181.357H250.5V180.837L249.98 180.858L250 181.357ZM210.833 221.094H210.333V221.594H210.833V221.094ZM250 221.094V221.594H250.5V221.094H250ZM249.98 180.858C243.374 181.126 233.48 183.454 225.223 189.579C216.943 195.721 210.333 205.668 210.333 221.094H211.333C211.333 206.003 217.779 196.346 225.819 190.382C233.881 184.401 243.57 182.119 250.02 181.857L249.98 180.858ZM210.833 221.594H250V220.594H210.833V221.594ZM250.5 221.094V181.357H249.5V221.094H250.5Z" fill="black"/>
</svg>
