<svg width="500" height="500" viewBox="0 0 500 500" fill="none" xmlns="http://www.w3.org/2000/svg">
<path d="M55.0313 0L0 55.0313V444.969L55.0313 500H444.969L500 444.969V55.0313L444.969 0H55.0313Z" fill="#131313"/>
<path d="M55.0313 0L0 55.0313V444.969L55.0313 500H250V0H55.0313Z" fill="#EA323C"/>
<path d="M20 436.684V63.3156L63.3156 20H436.684L480 63.3156V436.684L436.684 480H63.3156L20 436.684Z" stroke="#131313" stroke-width="40"/>
<path d="M148.043 345.147L89.6559 403.535L59.1649 373.043L148.043 284.165L236.921 373.043L206.43 403.535L148.043 345.147Z" fill="white"/>
<path d="M148.043 251.298L89.6559 309.685L59.1649 279.194L148.043 190.315L236.921 279.194L206.43 309.685L148.043 251.298Z" fill="white"/>
<path d="M148.043 157.447L89.6559 215.834L59.1649 185.343L148.043 96.4648L236.921 185.343L206.43 215.834L148.043 157.447Z" fill="white"/>
</svg>
