<svg width="312" height="224" viewBox="0 0 312 224" fill="none" xmlns="http://www.w3.org/2000/svg">
<path fill-rule="evenodd" clip-rule="evenodd" d="M17.1472 13.1533H24.6264H204.626H295.705L311.976 29.4241V207L295.705 223.271H17.1472L0.876404 207V29.4241L17.1472 13.1533ZM4.8764 109.581V205.343L18.8041 219.271H294.048L307.976 205.343V109.581L295.705 121.852H17.1472L4.8764 109.581ZM307.976 103.924V31.081L294.048 17.1533H204.626H24.6264H18.8041L4.8764 31.081V103.924L18.8041 117.852H294.048L307.976 103.924Z" fill="black"/>
<path d="M192.126 0.65332H37.1264L24.6264 13.1533L22.6264 15.1533L24.6264 17.1533L37.1264 29.6533H192.126L204.626 17.1533L206.626 15.1533L204.626 13.1533L192.126 0.65332Z" fill="black"/>
</svg>
