<svg width="312" height="220" viewBox="0 0 312 220" fill="none" xmlns="http://www.w3.org/2000/svg">
<path fill-rule="evenodd" clip-rule="evenodd" d="M17.1472 9.15332H29.6264H155.626H295.705L311.976 25.4241V203L295.705 219.271H17.1472L0.876404 203V25.4241L17.1472 9.15332ZM4.8764 105.581V201.343L18.8041 215.271H294.048L307.976 201.343V105.581L295.705 117.852H17.1472L4.8764 105.581ZM307.976 99.924V27.081L294.048 13.1533H155.626H29.6264H18.8041L4.8764 27.081V99.924L18.8041 113.852H294.048L307.976 99.924Z" fill="black"/>
<path d="M147.126 0.65332H38.1264L29.6264 9.15332L27.6264 11.1533L29.6264 13.1533L38.1264 21.6533H147.126L155.626 13.1533L157.626 11.1533L155.626 9.15332L147.126 0.65332Z" fill="black"/>
</svg>
