<svg width="312" height="223" viewBox="0 0 312 223" fill="none" xmlns="http://www.w3.org/2000/svg">
<path fill-rule="evenodd" clip-rule="evenodd" d="M17.1472 12.5H24.6264H204.626H295.705L311.976 28.7708V206.347L295.705 222.618H17.1472L0.876404 206.347V28.7708L17.1472 12.5ZM4.8764 108.928V204.69L18.8041 218.618H294.048L307.976 204.69V108.928L295.705 121.198H17.1472L4.8764 108.928ZM307.976 103.271V30.4277L294.048 16.5H204.626H24.6264H18.8041L4.8764 30.4277V103.271L18.8041 117.198H294.048L307.976 103.271Z" fill="white"/>
<path d="M192.126 0H37.1264L24.6264 12.5L22.6264 14.5L24.6264 16.5L37.1264 29H192.126L204.626 16.5L206.626 14.5L204.626 12.5L192.126 0Z" fill="white"/>
</svg>
