<svg width="500" height="500" viewBox="0 0 500 500" fill="none" xmlns="http://www.w3.org/2000/svg">
<g clip-path="url(#clip0_293_209)">
<path d="M55.0313 0L0 55.0313V444.969L55.0313 500H444.969L500 444.969V55.0313L444.969 0H55.0313Z" fill="#131313"/>
<path d="M500 55.0313L444.969 -2.4055e-06L55.0313 -1.94502e-05L-2.4055e-06 55.0313L-1.09278e-05 250L500 250L500 55.0313Z" fill="#93388F"/>
<path d="M20 436.684V63.3156L63.3156 20H436.684L480 63.3156V436.684L436.684 480H63.3156L20 436.684Z" stroke="#131313" stroke-width="40"/>
<path fill-rule="evenodd" clip-rule="evenodd" d="M250.246 72C225.255 87.8413 202.678 95.3358 183.301 93.564C179.917 162.009 205.194 202.431 249.987 219.301C293.243 203.511 318.829 164.829 316.932 92.5259C294.186 93.7163 271.87 88.7991 250.246 72ZM249.707 95.4269C232.664 106.229 217.268 111.339 204.055 110.133C201.748 156.807 218.984 184.371 249.529 195.874C249.722 195.803 249.912 195.73 250.103 195.658V95.7302L249.707 95.4269ZM250.22 80.4571C228.098 94.4787 208.113 101.114 190.961 99.5445C187.967 160.13 210.34 195.911 249.988 210.842C288.278 196.866 310.928 162.628 309.248 98.6251C289.113 99.68 269.36 95.3274 250.22 80.4571Z" fill="white"/>
<path d="M87 98.0741L120 65L153 98.0741V122L120 88.9259L87 122V98.0741Z" fill="white"/>
<path d="M87 145.074L120 112L153 145.074V169L120 135.926L87 169V145.074Z" fill="white"/>
</g>
<defs>
<clipPath id="clip0_293_209">
<rect width="500" height="500" fill="white"/>
</clipPath>
</defs>
</svg>
