<svg width="500" height="500" viewBox="0 0 500 500" fill="none" xmlns="http://www.w3.org/2000/svg">
<g clip-path="url(#clip0_293_216)">
<rect width="500" height="500" fill="white"/>
<path d="M55.0313 0L0 55.0313V444.969L55.0313 500H444.969L500 444.969V55.0313L444.969 0H55.0313Z" fill="#131313"/>
<path d="M500 55.0313L444.969 -2.4055e-06L55.0313 -1.94502e-05L-2.4055e-06 55.0313L-1.09278e-05 250L500 250L500 55.0313Z" fill="#93388F"/>
<path d="M20 436.684V63.3156L63.3156 20H436.684L480 63.3156V436.684L436.684 480H63.3156L20 436.684Z" stroke="#131313" stroke-width="40"/>
<path d="M294.738 92.5417H311.458L233.083 170.917L224.375 162.731L294.738 92.5417ZM181.182 215.503L188.497 222.818C189.302 223.626 190.259 224.266 191.313 224.703C192.366 225.14 193.496 225.365 194.636 225.365C195.777 225.365 196.906 225.14 197.959 224.703C199.013 224.266 199.97 223.626 200.775 222.818L227.945 195.648L251.284 218.812L263.562 206.534L251.197 194.168L328.875 116.49V75.125H287.51L209.832 152.803L197.466 140.438L185.187 152.716L208.439 175.968L181.269 203.137C177.785 206.621 177.785 212.107 181.182 215.503Z" fill="white"/>
<path d="M87 98.0741L120 65L153 98.0741V122L120 88.9259L87 122V98.0741Z" fill="white"/>
<path d="M87 145.074L120 112L153 145.074V169L120 135.926L87 169V145.074Z" fill="white"/>
</g>
<defs>
<clipPath id="clip0_293_216">
<rect width="500" height="500" fill="white"/>
</clipPath>
</defs>
</svg>
