<svg width="500" height="500" viewBox="0 0 500 500" fill="none" xmlns="http://www.w3.org/2000/svg">
<path d="M55.0313 0L0 55.0313V444.969L55.0313 500H444.969L500 444.969V55.0313L444.969 0H55.0313Z" fill="#131313"/>
<path d="M500 55.0313L444.969 -2.4055e-06L55.0313 -1.94502e-05L-2.4055e-06 55.0313L-1.09278e-05 250L500 250L500 55.0313Z" fill="#5AC54F"/>
<path d="M20 436.684V63.3156L63.3156 20H436.684L480 63.3156V436.684L436.684 480H63.3156L20 436.684Z" stroke="#131313" stroke-width="40"/>
<path d="M86 104.074L119 71L152 104.074V128L119 94.9259L86 128V104.074Z" fill="white"/>
<path d="M306.208 205.129L294.197 181.398C298.963 174.7 302.247 166.892 303.583 158.423L328.78 149.133L303.519 140.842C302.102 132.405 298.737 124.629 293.907 117.98L305.145 93.5722L281.414 105.583C274.716 100.801 266.908 97.5328 258.439 96.1965L249.133 71L240.842 96.2448C232.389 97.6777 224.629 101.027 217.964 105.873L193.572 94.6348L205.583 118.366C200.801 125.064 197.533 132.872 196.196 141.341L171 150.647L196.261 158.938C197.678 167.391 201.043 175.151 205.873 181.8L194.635 206.208L218.366 194.197C225.064 198.979 232.872 202.247 241.341 203.6L250.663 228.78L258.954 203.519C267.391 202.102 275.167 198.737 281.816 193.907L306.208 205.129ZM213.311 149.89C213.311 129.717 229.717 113.311 249.89 113.311C270.063 113.311 286.453 129.733 286.453 149.89C286.453 170.047 270.047 186.469 249.89 186.469C229.717 186.469 213.311 170.079 213.311 149.89Z" fill="white"/>
</svg>
