<svg width="283" height="283" viewBox="0 0 283 283" fill="none" xmlns="http://www.w3.org/2000/svg">
<path d="M28.0312 155.31L127.532 254.811L155.31 254.811L254.811 155.31V127.532L155.31 28.0308L127.532 28.0308L28.0312 127.532V155.31Z" fill="#EA323C" fill-opacity="0.69"/>
<path fill-rule="evenodd" clip-rule="evenodd" d="M28.0312 155.31L127.532 254.811L155.31 254.811L254.811 155.31V127.532L155.31 28.0308L127.532 28.0308L28.0312 127.532V155.31ZM18.0312 123.39V159.452L123.39 264.811H159.453L264.811 159.452V123.39L159.453 18.0308H123.39L18.0312 123.39Z" fill="black"/>
<path d="M96 96.4209L140.75 141.171M185.5 185.921L140.75 141.171M140.75 141.171L185.5 96.4209M140.75 141.171L96 185.921" stroke="black" stroke-width="12"/>
</svg>
