<svg width="283" height="283" viewBox="0 0 283 283" fill="none" xmlns="http://www.w3.org/2000/svg">
<path d="M28.0312 155.31L127.532 254.811L155.31 254.811L254.811 155.31V127.532L155.31 28.0308L127.532 28.0308L28.0312 127.532V155.31Z" fill="white" fill-opacity="0.69"/>
<path fill-rule="evenodd" clip-rule="evenodd" d="M28.0312 155.31L127.532 254.811L155.31 254.811L254.811 155.31V127.532L155.31 28.0308L127.532 28.0308L28.0312 127.532V155.31ZM18.0312 123.39V159.452L123.39 264.811H159.453L264.811 159.452V123.39L159.453 18.0308H123.39L18.0312 123.39Z" fill="black"/>
<path d="M115.543 120.352L119.182 124L111.394 131.769L99.6528 119.999L141.422 78.1289L183.19 119.999L147.068 156.209L146.922 156.356V156.562V185.416H135.922V151.807L167.301 120.352L167.653 119.999L167.301 119.646L141.776 94.0589L141.422 93.7041L141.068 94.0589L115.543 119.646L115.19 119.999L115.543 120.352ZM146.922 193.417V204.417H135.922V193.417H146.922Z" fill="black" stroke="black"/>
</svg>
