<svg width="673" height="226" viewBox="0 0 673 226" fill="none" xmlns="http://www.w3.org/2000/svg">
<path d="M6 203.919V27.9996L21.0992 12.9004H298L313.099 27.9996V203.919L298 219.018H21.0992L6 203.919Z" fill="white" fill-opacity="0.69" stroke="black" stroke-width="4"/>
<path d="M6 102.5L6.00011 27.9996L21.0993 12.9004H298L313.099 27.9996L313.099 102.5L298 117.599H21.0992L6 102.5Z" stroke="black" stroke-width="4"/>
<path d="M151.5 2H42.5L32 12.5L42.5 23H151.5L162 12.5L151.5 2Z" fill="black"/>
<path d="M62.0074 18.128C61.2394 18.128 60.594 18.0853 60.0714 18C59.5487 17.904 59.122 17.744 58.7914 17.52C58.4607 17.2853 58.2047 16.96 58.0234 16.544C57.8527 16.1173 57.7354 15.5733 57.6714 14.912C57.6074 14.2507 57.5754 13.4453 57.5754 12.496C57.5754 11.5467 57.6074 10.7467 57.6714 10.096C57.7354 9.43467 57.8527 8.896 58.0234 8.48C58.2047 8.05333 58.4607 7.72267 58.7914 7.488C59.122 7.25333 59.5487 7.09333 60.0714 7.008C60.594 6.912 61.2394 6.864 62.0074 6.864C62.306 6.864 62.61 6.87467 62.9194 6.896C63.2394 6.91733 63.5434 6.944 63.8314 6.976C64.1194 7.008 64.37 7.05067 64.5834 7.104V8.208C64.338 8.176 64.082 8.14933 63.8154 8.128C63.5594 8.096 63.3034 8.07467 63.0474 8.064C62.7914 8.05333 62.562 8.048 62.3594 8.048C61.7407 8.048 61.2234 8.07467 60.8074 8.128C60.3914 8.18133 60.0607 8.288 59.8154 8.448C59.57 8.59733 59.3834 8.83733 59.2554 9.168C59.138 9.488 59.058 9.92 59.0154 10.464C58.9727 10.9973 58.9514 11.6747 58.9514 12.496C58.9514 13.3173 58.9727 14 59.0154 14.544C59.058 15.0773 59.138 15.5093 59.2554 15.84C59.3834 16.16 59.57 16.4 59.8154 16.56C60.0607 16.7093 60.3914 16.8107 60.8074 16.864C61.2234 16.9173 61.7407 16.944 62.3594 16.944C62.722 16.944 63.1167 16.928 63.5434 16.896C63.97 16.864 64.338 16.8267 64.6474 16.784V17.92C64.4234 17.9627 64.1567 17.9947 63.8474 18.016C63.5487 18.048 63.2394 18.0747 62.9194 18.096C62.5994 18.1173 62.2954 18.128 62.0074 18.128ZM70.1705 18.128C69.4985 18.128 68.9385 18.0853 68.4905 18C68.0532 17.9253 67.7065 17.7973 67.4505 17.616C67.1945 17.4347 67.0025 17.184 66.8745 16.864C66.7572 16.544 66.6825 16.144 66.6505 15.664C66.6185 15.1733 66.6025 14.592 66.6025 13.92C66.6025 13.248 66.6185 12.672 66.6505 12.192C66.6825 11.7013 66.7572 11.296 66.8745 10.976C67.0025 10.656 67.1945 10.4053 67.4505 10.224C67.7065 10.0427 68.0532 9.91467 68.4905 9.84C68.9385 9.75467 69.4985 9.712 70.1705 9.712C70.8532 9.712 71.4132 9.75467 71.8505 9.84C72.2878 9.91467 72.6345 10.0427 72.8905 10.224C73.1572 10.4053 73.3492 10.656 73.4665 10.976C73.5945 11.296 73.6745 11.7013 73.7065 12.192C73.7385 12.672 73.7545 13.248 73.7545 13.92C73.7545 14.592 73.7385 15.1733 73.7065 15.664C73.6745 16.144 73.5945 16.544 73.4665 16.864C73.3492 17.184 73.1572 17.4347 72.8905 17.616C72.6345 17.7973 72.2878 17.9253 71.8505 18C71.4132 18.0853 70.8532 18.128 70.1705 18.128ZM70.1705 17.024C70.7465 17.024 71.1892 16.9867 71.4985 16.912C71.8078 16.8373 72.0265 16.6933 72.1545 16.48C72.2932 16.2667 72.3732 15.9573 72.3945 15.552C72.4265 15.136 72.4425 14.592 72.4425 13.92C72.4425 13.248 72.4265 12.7093 72.3945 12.304C72.3732 11.888 72.2932 11.5733 72.1545 11.36C72.0265 11.1467 71.8078 11.0027 71.4985 10.928C71.1892 10.8533 70.7465 10.816 70.1705 10.816C69.6052 10.816 69.1625 10.8533 68.8425 10.928C68.5332 11.0027 68.3145 11.1467 68.1865 11.36C68.0585 11.5733 67.9785 11.888 67.9465 12.304C67.9145 12.7093 67.8985 13.248 67.8985 13.92C67.8985 14.592 67.9145 15.136 67.9465 15.552C67.9785 15.9573 68.0585 16.2667 68.1865 16.48C68.3145 16.6933 68.5332 16.8373 68.8425 16.912C69.1625 16.9867 69.6052 17.024 70.1705 17.024ZM76.1729 18V9.84H77.3569L77.4049 11.008H77.5009C77.6182 10.752 77.7782 10.528 77.9809 10.336C78.1942 10.144 78.4769 9.99467 78.8289 9.888C79.1915 9.77067 79.6502 9.712 80.2049 9.712C80.8129 9.712 81.2982 9.776 81.6609 9.904C82.0235 10.032 82.3009 10.224 82.4929 10.48C82.6955 10.736 82.8289 11.0667 82.8929 11.472C82.9569 11.8667 82.9889 12.3413 82.9889 12.896V18H81.6929V13.344C81.6929 12.7893 81.6662 12.352 81.6129 12.032C81.5702 11.7013 81.4795 11.456 81.3409 11.296C81.2022 11.1253 80.9995 11.0133 80.7329 10.96C80.4662 10.9067 80.1142 10.88 79.6769 10.88C79.1542 10.88 78.7435 10.9493 78.4449 11.088C78.1462 11.216 77.9275 11.408 77.7889 11.664C77.6502 11.9093 77.5649 12.2133 77.5329 12.576C77.5009 12.928 77.4849 13.3333 77.4849 13.792V18H76.1729ZM86.455 18V10.944H84.791V9.84H86.455V8.544C86.455 8.08533 86.4923 7.712 86.567 7.424C86.6417 7.12533 86.759 6.89067 86.919 6.72C87.0897 6.53867 87.3083 6.40533 87.575 6.32C87.8417 6.23467 88.1617 6.18133 88.535 6.16C88.919 6.13867 89.3617 6.128 89.863 6.128V7.12C89.4257 7.12 89.0683 7.136 88.791 7.168C88.5137 7.2 88.3003 7.25867 88.151 7.344C88.0017 7.41867 87.895 7.536 87.831 7.696C87.7777 7.856 87.751 8.064 87.751 8.32V9.84H89.863V10.944H87.751V18H86.455ZM91.719 18V9.84H93.015V18H91.719ZM91.671 7.536V6.112H93.063V7.536H91.671ZM98.4386 18.128C97.852 18.128 97.3613 18.064 96.9666 17.936C96.5826 17.808 96.2786 17.5893 96.0546 17.28C95.8306 16.96 95.6706 16.528 95.5746 15.984C95.4786 15.44 95.4306 14.7573 95.4306 13.936C95.4306 13.104 95.4733 12.416 95.5586 11.872C95.6546 11.3173 95.8146 10.8853 96.0386 10.576C96.2626 10.2667 96.5666 10.048 96.9506 9.92C97.3346 9.78133 97.82 9.712 98.4066 9.712C98.844 9.712 99.2333 9.74933 99.5746 9.824C99.916 9.888 100.209 10.0053 100.455 10.176C100.711 10.3467 100.913 10.5813 101.063 10.88H101.143V6.112H102.455V18H101.287L101.223 16.832H101.127C100.977 17.2053 100.759 17.488 100.471 17.68C100.193 17.8613 99.8786 17.9787 99.5266 18.032C99.1746 18.096 98.812 18.128 98.4386 18.128ZM98.9506 16.976C99.4946 16.976 99.9266 16.9013 100.247 16.752C100.567 16.6027 100.791 16.368 100.919 16.048C101.025 15.7493 101.089 15.424 101.111 15.072C101.132 14.72 101.143 14.304 101.143 13.824C101.143 13.4293 101.132 13.072 101.111 12.752C101.089 12.4213 101.031 12.1333 100.935 11.888C100.796 11.5253 100.567 11.2693 100.247 11.12C99.9266 10.96 99.484 10.88 98.9186 10.88C98.4386 10.88 98.0546 10.912 97.7666 10.976C97.4786 11.04 97.26 11.1787 97.1106 11.392C96.9613 11.5947 96.86 11.8987 96.8066 12.304C96.7533 12.6987 96.7266 13.2373 96.7266 13.92C96.7266 14.6027 96.7533 15.1467 96.8066 15.552C96.86 15.9573 96.9613 16.2613 97.1106 16.464C97.26 16.6667 97.4786 16.8053 97.7666 16.88C98.0653 16.944 98.46 16.976 98.9506 16.976ZM108.532 18.128C107.871 18.128 107.316 18.0853 106.868 18C106.431 17.9147 106.079 17.776 105.812 17.584C105.545 17.3813 105.343 17.12 105.204 16.8C105.065 16.4693 104.975 16.0693 104.932 15.6C104.889 15.1307 104.868 14.576 104.868 13.936C104.868 13.1787 104.9 12.5333 104.964 12C105.028 11.456 105.172 11.0187 105.396 10.688C105.631 10.3467 105.993 10.1013 106.484 9.952C106.975 9.792 107.636 9.712 108.468 9.712C109.097 9.712 109.609 9.76 110.004 9.856C110.409 9.952 110.729 10.1013 110.964 10.304C111.199 10.5067 111.369 10.7787 111.476 11.12C111.593 11.4507 111.668 11.8507 111.7 12.32C111.732 12.7787 111.748 13.312 111.748 13.92V14.352H106.164C106.164 14.9067 106.191 15.36 106.244 15.712C106.297 16.064 106.404 16.336 106.564 16.528C106.735 16.72 106.996 16.8533 107.348 16.928C107.711 17.0027 108.201 17.04 108.82 17.04C109.076 17.04 109.359 17.0347 109.668 17.024C109.977 17.0027 110.287 16.976 110.596 16.944C110.905 16.912 111.183 16.88 111.428 16.848V17.904C111.204 17.9467 110.927 17.984 110.596 18.016C110.276 18.048 109.935 18.0747 109.572 18.096C109.22 18.1173 108.873 18.128 108.532 18.128ZM110.484 13.696V13.264C110.484 12.7093 110.452 12.272 110.388 11.952C110.324 11.6213 110.212 11.376 110.052 11.216C109.903 11.0453 109.695 10.9333 109.428 10.88C109.161 10.8267 108.831 10.8 108.436 10.8C107.924 10.8 107.519 10.8373 107.22 10.912C106.921 10.976 106.697 11.0987 106.548 11.28C106.399 11.4613 106.297 11.7227 106.244 12.064C106.191 12.4053 106.164 12.8587 106.164 13.424H110.788L110.484 13.696ZM114.142 18V9.84H115.326L115.374 11.008H115.47C115.587 10.752 115.747 10.528 115.95 10.336C116.163 10.144 116.446 9.99467 116.798 9.888C117.16 9.77067 117.619 9.712 118.174 9.712C118.782 9.712 119.267 9.776 119.63 9.904C119.992 10.032 120.27 10.224 120.462 10.48C120.664 10.736 120.798 11.0667 120.862 11.472C120.926 11.8667 120.958 12.3413 120.958 12.896V18H119.662V13.344C119.662 12.7893 119.635 12.352 119.582 12.032C119.539 11.7013 119.448 11.456 119.31 11.296C119.171 11.1253 118.968 11.0133 118.702 10.96C118.435 10.9067 118.083 10.88 117.646 10.88C117.123 10.88 116.712 10.9493 116.414 11.088C116.115 11.216 115.896 11.408 115.758 11.664C115.619 11.9093 115.534 12.2133 115.502 12.576C115.47 12.928 115.454 13.3333 115.454 13.792V18H114.142ZM126.696 18.128C126.077 18.128 125.565 18.0747 125.16 17.968C124.765 17.8613 124.445 17.7013 124.2 17.488C123.965 17.2747 123.789 17.0027 123.672 16.672C123.554 16.3413 123.474 15.9467 123.432 15.488C123.4 15.0293 123.384 14.5067 123.384 13.92C123.384 13.312 123.405 12.7787 123.448 12.32C123.501 11.8613 123.592 11.4667 123.72 11.136C123.858 10.7947 124.045 10.5227 124.28 10.32C124.525 10.1173 124.84 9.968 125.224 9.872C125.608 9.76533 126.082 9.712 126.648 9.712C127.021 9.712 127.41 9.73333 127.816 9.776C128.232 9.808 128.573 9.856 128.84 9.92V10.976C128.594 10.9333 128.29 10.896 127.928 10.864C127.576 10.832 127.256 10.816 126.968 10.816C126.466 10.816 126.061 10.8587 125.752 10.944C125.453 11.0293 125.224 11.184 125.064 11.408C124.914 11.632 124.813 11.9467 124.76 12.352C124.706 12.7573 124.68 13.28 124.68 13.92C124.68 14.5707 124.706 15.104 124.76 15.52C124.813 15.9253 124.92 16.24 125.08 16.464C125.25 16.6773 125.485 16.8267 125.784 16.912C126.093 16.9867 126.498 17.024 127 17.024C127.298 17.024 127.624 17.008 127.976 16.976C128.328 16.944 128.642 16.9067 128.92 16.864V17.92C128.653 17.9733 128.312 18.0213 127.896 18.064C127.48 18.1067 127.08 18.128 126.696 18.128ZM134.407 18.128C133.746 18.128 133.191 18.0853 132.743 18C132.306 17.9147 131.954 17.776 131.687 17.584C131.42 17.3813 131.218 17.12 131.079 16.8C130.94 16.4693 130.85 16.0693 130.807 15.6C130.764 15.1307 130.743 14.576 130.743 13.936C130.743 13.1787 130.775 12.5333 130.839 12C130.903 11.456 131.047 11.0187 131.271 10.688C131.506 10.3467 131.868 10.1013 132.359 9.952C132.85 9.792 133.511 9.712 134.343 9.712C134.972 9.712 135.484 9.76 135.879 9.856C136.284 9.952 136.604 10.1013 136.839 10.304C137.074 10.5067 137.244 10.7787 137.351 11.12C137.468 11.4507 137.543 11.8507 137.575 12.32C137.607 12.7787 137.623 13.312 137.623 13.92V14.352H132.039C132.039 14.9067 132.066 15.36 132.119 15.712C132.172 16.064 132.279 16.336 132.439 16.528C132.61 16.72 132.871 16.8533 133.223 16.928C133.586 17.0027 134.076 17.04 134.695 17.04C134.951 17.04 135.234 17.0347 135.543 17.024C135.852 17.0027 136.162 16.976 136.471 16.944C136.78 16.912 137.058 16.88 137.303 16.848V17.904C137.079 17.9467 136.802 17.984 136.471 18.016C136.151 18.048 135.81 18.0747 135.447 18.096C135.095 18.1173 134.748 18.128 134.407 18.128ZM136.359 13.696V13.264C136.359 12.7093 136.327 12.272 136.263 11.952C136.199 11.6213 136.087 11.376 135.927 11.216C135.778 11.0453 135.57 10.9333 135.303 10.88C135.036 10.8267 134.706 10.8 134.311 10.8C133.799 10.8 133.394 10.8373 133.095 10.912C132.796 10.976 132.572 11.0987 132.423 11.28C132.274 11.4613 132.172 11.7227 132.119 12.064C132.066 12.4053 132.039 12.8587 132.039 13.424H136.663L136.359 13.696Z" fill="white"/>
<path d="M20.4 146V136.368H21.604V146H20.4ZM24.2099 146V138.86H25.2459L25.2879 139.882H25.3719C25.4745 139.658 25.6145 139.462 25.7919 139.294C25.9785 139.126 26.2259 138.995 26.5339 138.902C26.8512 138.799 27.2525 138.748 27.7379 138.748C28.2699 138.748 28.6945 138.804 29.0119 138.916C29.3292 139.028 29.5719 139.196 29.7399 139.42C29.9172 139.644 30.0339 139.933 30.0899 140.288C30.1459 140.633 30.1739 141.049 30.1739 141.534V146H29.0399V141.926C29.0399 141.441 29.0165 141.058 28.9699 140.778C28.9325 140.489 28.8532 140.274 28.7319 140.134C28.6105 139.985 28.4332 139.887 28.1999 139.84C27.9665 139.793 27.6585 139.77 27.2759 139.77C26.8185 139.77 26.4592 139.831 26.1979 139.952C25.9365 140.064 25.7452 140.232 25.6239 140.456C25.5025 140.671 25.4279 140.937 25.3999 141.254C25.3719 141.562 25.3579 141.917 25.3579 142.318V146H24.2099ZM35.1947 146.112C34.6534 146.112 34.2054 146.065 33.8507 145.972C33.5054 145.879 33.2254 145.739 33.0107 145.552C32.8054 145.365 32.6514 145.127 32.5487 144.838C32.4461 144.549 32.3761 144.203 32.3387 143.802C32.3107 143.401 32.2967 142.943 32.2967 142.43C32.2967 141.898 32.3154 141.431 32.3527 141.03C32.3994 140.629 32.4787 140.283 32.5907 139.994C32.7121 139.695 32.8754 139.457 33.0807 139.28C33.2954 139.103 33.5707 138.972 33.9067 138.888C34.2427 138.795 34.6581 138.748 35.1527 138.748C35.4794 138.748 35.8201 138.767 36.1747 138.804C36.5387 138.832 36.8374 138.874 37.0707 138.93V139.854C36.8561 139.817 36.5901 139.784 36.2727 139.756C35.9647 139.728 35.6847 139.714 35.4327 139.714C34.9941 139.714 34.6394 139.751 34.3687 139.826C34.1074 139.901 33.9067 140.036 33.7667 140.232C33.6361 140.428 33.5474 140.703 33.5007 141.058C33.4541 141.413 33.4307 141.87 33.4307 142.43C33.4307 142.999 33.4541 143.466 33.5007 143.83C33.5474 144.185 33.6407 144.46 33.7807 144.656C33.9301 144.843 34.1354 144.973 34.3967 145.048C34.6674 145.113 35.0221 145.146 35.4607 145.146C35.7221 145.146 36.0067 145.132 36.3147 145.104C36.6227 145.076 36.8981 145.043 37.1407 145.006V145.93C36.9074 145.977 36.6087 146.019 36.2447 146.056C35.8807 146.093 35.5307 146.112 35.1947 146.112ZM39.0302 146V138.86H40.0522L40.1082 140.232H40.1922C40.3135 139.831 40.4862 139.523 40.7102 139.308C40.9342 139.093 41.2048 138.949 41.5222 138.874C41.8395 138.79 42.1895 138.748 42.5722 138.748V139.868C41.9282 139.868 41.4335 139.971 41.0882 140.176C40.7428 140.381 40.5048 140.699 40.3742 141.128C40.2435 141.557 40.1782 142.099 40.1782 142.752V146H39.0302ZM47.0144 146.112C46.4358 146.112 45.9504 146.075 45.5584 146C45.1758 145.925 44.8678 145.804 44.6344 145.636C44.4011 145.459 44.2238 145.23 44.1024 144.95C43.9811 144.661 43.9018 144.311 43.8644 143.9C43.8271 143.489 43.8084 143.004 43.8084 142.444C43.8084 141.781 43.8364 141.217 43.8924 140.75C43.9484 140.274 44.0744 139.891 44.2704 139.602C44.4758 139.303 44.7931 139.089 45.2224 138.958C45.6518 138.818 46.2304 138.748 46.9584 138.748C47.5091 138.748 47.9571 138.79 48.3024 138.874C48.6571 138.958 48.9371 139.089 49.1424 139.266C49.3478 139.443 49.4971 139.681 49.5904 139.98C49.6931 140.269 49.7584 140.619 49.7864 141.03C49.8144 141.431 49.8284 141.898 49.8284 142.43V142.808H44.9424C44.9424 143.293 44.9658 143.69 45.0124 143.998C45.0591 144.306 45.1524 144.544 45.2924 144.712C45.4418 144.88 45.6704 144.997 45.9784 145.062C46.2958 145.127 46.7251 145.16 47.2664 145.16C47.4904 145.16 47.7378 145.155 48.0084 145.146C48.2791 145.127 48.5498 145.104 48.8204 145.076C49.0911 145.048 49.3338 145.02 49.5484 144.992V145.916C49.3524 145.953 49.1098 145.986 48.8204 146.014C48.5404 146.042 48.2418 146.065 47.9244 146.084C47.6164 146.103 47.3131 146.112 47.0144 146.112ZM48.7224 142.234V141.856C48.7224 141.371 48.6944 140.988 48.6384 140.708C48.5824 140.419 48.4844 140.204 48.3444 140.064C48.2138 139.915 48.0318 139.817 47.7984 139.77C47.5651 139.723 47.2758 139.7 46.9304 139.7C46.4824 139.7 46.1278 139.733 45.8664 139.798C45.6051 139.854 45.4091 139.961 45.2784 140.12C45.1478 140.279 45.0591 140.507 45.0124 140.806C44.9658 141.105 44.9424 141.501 44.9424 141.996H48.9884L48.7224 142.234ZM53.8408 146.112C53.3181 146.112 52.8794 146.051 52.5248 145.93C52.1794 145.809 51.9181 145.599 51.7408 145.3C51.5728 145.001 51.4888 144.581 51.4888 144.04C51.4888 143.499 51.5494 143.074 51.6708 142.766C51.8014 142.449 52.0254 142.225 52.3428 142.094C52.6601 141.963 53.1034 141.898 53.6728 141.898C53.7661 141.898 53.9108 141.903 54.1068 141.912C54.3121 141.912 54.5454 141.917 54.8068 141.926C55.0681 141.926 55.3294 141.931 55.5908 141.94C55.8614 141.94 56.1088 141.945 56.3328 141.954V141.506C56.3328 141.086 56.3048 140.759 56.2488 140.526C56.2021 140.283 56.0994 140.106 55.9408 139.994C55.7821 139.873 55.5581 139.798 55.2688 139.77C54.9888 139.733 54.6154 139.714 54.1488 139.714C53.9434 139.714 53.7008 139.723 53.4208 139.742C53.1408 139.751 52.8654 139.77 52.5948 139.798C52.3334 139.817 52.1234 139.84 51.9648 139.868V138.944C52.3194 138.879 52.7161 138.832 53.1548 138.804C53.6028 138.767 54.0648 138.748 54.5408 138.748C55.0448 138.748 55.4694 138.781 55.8148 138.846C56.1694 138.902 56.4541 138.995 56.6688 139.126C56.8928 139.257 57.0608 139.429 57.1728 139.644C57.2848 139.859 57.3594 140.12 57.3968 140.428C57.4434 140.736 57.4668 141.095 57.4668 141.506V146H56.4448L56.4028 144.992H56.3188C56.1694 145.319 55.9548 145.566 55.6748 145.734C55.4041 145.893 55.1054 145.995 54.7788 146.042C54.4521 146.089 54.1394 146.112 53.8408 146.112ZM54.2608 145.174C54.5314 145.174 54.7834 145.16 55.0168 145.132C55.2501 145.095 55.4554 145.029 55.6328 144.936C55.8101 144.843 55.9501 144.703 56.0528 144.516C56.1554 144.32 56.2254 144.11 56.2628 143.886C56.3094 143.653 56.3328 143.382 56.3328 143.074V142.71H53.9528C53.5888 142.71 53.3088 142.738 53.1128 142.794C52.9168 142.85 52.7814 142.967 52.7068 143.144C52.6414 143.321 52.6088 143.587 52.6088 143.942C52.6088 144.287 52.6508 144.549 52.7348 144.726C52.8188 144.903 52.9774 145.025 53.2108 145.09C53.4534 145.146 53.8034 145.174 54.2608 145.174ZM62.2735 146.112C62.0028 146.112 61.7135 146.103 61.4055 146.084C61.0975 146.065 60.7941 146.042 60.4955 146.014C60.1968 145.995 59.9261 145.967 59.6835 145.93V145.006C59.9075 145.025 60.1221 145.043 60.3275 145.062C60.5421 145.081 60.7521 145.099 60.9575 145.118C61.1628 145.127 61.3681 145.137 61.5735 145.146C61.7788 145.146 61.9888 145.146 62.2035 145.146C62.6888 145.146 63.0388 145.113 63.2535 145.048C63.4775 144.973 63.6221 144.852 63.6875 144.684C63.7621 144.516 63.7995 144.297 63.7995 144.026C63.7995 143.718 63.7715 143.494 63.7155 143.354C63.6688 143.214 63.5801 143.125 63.4495 143.088C63.3281 143.041 63.1415 143.004 62.8895 142.976L61.0415 142.766C60.6028 142.719 60.2715 142.626 60.0475 142.486C59.8235 142.337 59.6695 142.127 59.5855 141.856C59.5015 141.585 59.4595 141.245 59.4595 140.834C59.4595 140.367 59.5248 139.994 59.6555 139.714C59.7861 139.434 59.9728 139.224 60.2155 139.084C60.4581 138.944 60.7521 138.855 61.0975 138.818C61.4428 138.771 61.8301 138.748 62.2595 138.748C62.5021 138.748 62.7588 138.757 63.0295 138.776C63.3001 138.795 63.5661 138.818 63.8275 138.846C64.0888 138.874 64.3128 138.907 64.4995 138.944V139.868C64.2568 139.831 64.0095 139.803 63.7575 139.784C63.5148 139.756 63.2628 139.737 63.0015 139.728C62.7495 139.719 62.4928 139.714 62.2315 139.714C61.8768 139.714 61.5735 139.733 61.3215 139.77C61.0695 139.807 60.8781 139.901 60.7475 140.05C60.6261 140.199 60.5655 140.447 60.5655 140.792C60.5655 141.063 60.5841 141.268 60.6215 141.408C60.6681 141.539 60.7568 141.632 60.8875 141.688C61.0181 141.735 61.2001 141.772 61.4335 141.8L63.3655 142.01C63.7481 142.047 64.0468 142.122 64.2615 142.234C64.4855 142.337 64.6441 142.523 64.7375 142.794C64.8401 143.065 64.8915 143.471 64.8915 144.012C64.8915 144.46 64.8355 144.824 64.7235 145.104C64.6208 145.375 64.4575 145.585 64.2335 145.734C64.0095 145.883 63.7341 145.981 63.4075 146.028C63.0808 146.084 62.7028 146.112 62.2735 146.112ZM69.7918 146.112C69.2131 146.112 68.7278 146.075 68.3358 146C67.9531 145.925 67.6451 145.804 67.4118 145.636C67.1784 145.459 67.0011 145.23 66.8798 144.95C66.7584 144.661 66.6791 144.311 66.6418 143.9C66.6044 143.489 66.5858 143.004 66.5858 142.444C66.5858 141.781 66.6138 141.217 66.6698 140.75C66.7258 140.274 66.8518 139.891 67.0478 139.602C67.2531 139.303 67.5704 139.089 67.9998 138.958C68.4291 138.818 69.0078 138.748 69.7358 138.748C70.2864 138.748 70.7344 138.79 71.0798 138.874C71.4344 138.958 71.7144 139.089 71.9198 139.266C72.1251 139.443 72.2744 139.681 72.3678 139.98C72.4704 140.269 72.5358 140.619 72.5638 141.03C72.5918 141.431 72.6058 141.898 72.6058 142.43V142.808H67.7198C67.7198 143.293 67.7431 143.69 67.7898 143.998C67.8364 144.306 67.9298 144.544 68.0698 144.712C68.2191 144.88 68.4478 144.997 68.7558 145.062C69.0731 145.127 69.5024 145.16 70.0438 145.16C70.2678 145.16 70.5151 145.155 70.7858 145.146C71.0564 145.127 71.3271 145.104 71.5978 145.076C71.8684 145.048 72.1111 145.02 72.3258 144.992V145.916C72.1298 145.953 71.8871 145.986 71.5978 146.014C71.3178 146.042 71.0191 146.065 70.7018 146.084C70.3938 146.103 70.0904 146.112 69.7918 146.112ZM71.4998 142.234V141.856C71.4998 141.371 71.4718 140.988 71.4158 140.708C71.3598 140.419 71.2618 140.204 71.1218 140.064C70.9911 139.915 70.8091 139.817 70.5758 139.77C70.3424 139.723 70.0531 139.7 69.7078 139.7C69.2598 139.7 68.9051 139.733 68.6438 139.798C68.3824 139.854 68.1864 139.961 68.0558 140.12C67.9251 140.279 67.8364 140.507 67.7898 140.806C67.7431 141.105 67.7198 141.501 67.7198 141.996H71.7658L71.4998 142.234ZM77.0801 146.112C76.8094 146.112 76.5201 146.103 76.2121 146.084C75.9041 146.065 75.6008 146.042 75.3021 146.014C75.0034 145.995 74.7328 145.967 74.4901 145.93V145.006C74.7141 145.025 74.9288 145.043 75.1341 145.062C75.3488 145.081 75.5588 145.099 75.7641 145.118C75.9694 145.127 76.1748 145.137 76.3801 145.146C76.5854 145.146 76.7954 145.146 77.0101 145.146C77.4954 145.146 77.8454 145.113 78.0601 145.048C78.2841 144.973 78.4288 144.852 78.4941 144.684C78.5688 144.516 78.6061 144.297 78.6061 144.026C78.6061 143.718 78.5781 143.494 78.5221 143.354C78.4754 143.214 78.3868 143.125 78.2561 143.088C78.1348 143.041 77.9481 143.004 77.6961 142.976L75.8481 142.766C75.4094 142.719 75.0781 142.626 74.8541 142.486C74.6301 142.337 74.4761 142.127 74.3921 141.856C74.3081 141.585 74.2661 141.245 74.2661 140.834C74.2661 140.367 74.3314 139.994 74.4621 139.714C74.5928 139.434 74.7794 139.224 75.0221 139.084C75.2648 138.944 75.5588 138.855 75.9041 138.818C76.2494 138.771 76.6368 138.748 77.0661 138.748C77.3088 138.748 77.5654 138.757 77.8361 138.776C78.1068 138.795 78.3728 138.818 78.6341 138.846C78.8954 138.874 79.1194 138.907 79.3061 138.944V139.868C79.0634 139.831 78.8161 139.803 78.5641 139.784C78.3214 139.756 78.0694 139.737 77.8081 139.728C77.5561 139.719 77.2994 139.714 77.0381 139.714C76.6834 139.714 76.3801 139.733 76.1281 139.77C75.8761 139.807 75.6848 139.901 75.5541 140.05C75.4328 140.199 75.3721 140.447 75.3721 140.792C75.3721 141.063 75.3908 141.268 75.4281 141.408C75.4748 141.539 75.5634 141.632 75.6941 141.688C75.8248 141.735 76.0068 141.772 76.2401 141.8L78.1721 142.01C78.5548 142.047 78.8534 142.122 79.0681 142.234C79.2921 142.337 79.4508 142.523 79.5441 142.794C79.6468 143.065 79.6981 143.471 79.6981 144.012C79.6981 144.46 79.6421 144.824 79.5301 145.104C79.4274 145.375 79.2641 145.585 79.0401 145.734C78.8161 145.883 78.5408 145.981 78.2141 146.028C77.8874 146.084 77.5094 146.112 77.0801 146.112ZM86.8993 146.112C86.3767 146.112 85.938 146.051 85.5833 145.93C85.238 145.809 84.9767 145.599 84.7993 145.3C84.6313 145.001 84.5473 144.581 84.5473 144.04C84.5473 143.499 84.608 143.074 84.7293 142.766C84.86 142.449 85.084 142.225 85.4013 142.094C85.7187 141.963 86.162 141.898 86.7313 141.898C86.8247 141.898 86.9693 141.903 87.1653 141.912C87.3707 141.912 87.604 141.917 87.8653 141.926C88.1267 141.926 88.388 141.931 88.6493 141.94C88.92 141.94 89.1673 141.945 89.3913 141.954V141.506C89.3913 141.086 89.3633 140.759 89.3073 140.526C89.2607 140.283 89.158 140.106 88.9993 139.994C88.8407 139.873 88.6167 139.798 88.3273 139.77C88.0473 139.733 87.674 139.714 87.2073 139.714C87.002 139.714 86.7593 139.723 86.4793 139.742C86.1993 139.751 85.924 139.77 85.6533 139.798C85.392 139.817 85.182 139.84 85.0233 139.868V138.944C85.378 138.879 85.7747 138.832 86.2133 138.804C86.6613 138.767 87.1233 138.748 87.5993 138.748C88.1033 138.748 88.528 138.781 88.8733 138.846C89.228 138.902 89.5127 138.995 89.7273 139.126C89.9513 139.257 90.1193 139.429 90.2313 139.644C90.3433 139.859 90.418 140.12 90.4553 140.428C90.502 140.736 90.5253 141.095 90.5253 141.506V146H89.5033L89.4613 144.992H89.3773C89.228 145.319 89.0133 145.566 88.7333 145.734C88.4627 145.893 88.164 145.995 87.8373 146.042C87.5107 146.089 87.198 146.112 86.8993 146.112ZM87.3193 145.174C87.59 145.174 87.842 145.16 88.0753 145.132C88.3087 145.095 88.514 145.029 88.6913 144.936C88.8687 144.843 89.0087 144.703 89.1113 144.516C89.214 144.32 89.284 144.11 89.3213 143.886C89.368 143.653 89.3913 143.382 89.3913 143.074V142.71H87.0113C86.6473 142.71 86.3673 142.738 86.1713 142.794C85.9753 142.85 85.84 142.967 85.7653 143.144C85.7 143.321 85.6673 143.587 85.6673 143.942C85.6673 144.287 85.7093 144.549 85.7933 144.726C85.8773 144.903 86.036 145.025 86.2693 145.09C86.512 145.146 86.862 145.174 87.3193 145.174ZM93.4857 146V139.826H92.0437V138.86H93.4857V136.788H94.6197V138.86H96.3277V139.826H94.6197V146H93.4857ZM98.5033 146V139.826H97.0613V138.86H98.5033V136.788H99.6373V138.86H101.345V139.826H99.6373V146H98.5033ZM104.7 146.112C104.177 146.112 103.739 146.051 103.384 145.93C103.039 145.809 102.777 145.599 102.6 145.3C102.432 145.001 102.348 144.581 102.348 144.04C102.348 143.499 102.409 143.074 102.53 142.766C102.661 142.449 102.885 142.225 103.202 142.094C103.519 141.963 103.963 141.898 104.532 141.898C104.625 141.898 104.77 141.903 104.966 141.912C105.171 141.912 105.405 141.917 105.666 141.926C105.927 141.926 106.189 141.931 106.45 141.94C106.721 141.94 106.968 141.945 107.192 141.954V141.506C107.192 141.086 107.164 140.759 107.108 140.526C107.061 140.283 106.959 140.106 106.8 139.994C106.641 139.873 106.417 139.798 106.128 139.77C105.848 139.733 105.475 139.714 105.008 139.714C104.803 139.714 104.56 139.723 104.28 139.742C104 139.751 103.725 139.77 103.454 139.798C103.193 139.817 102.983 139.84 102.824 139.868V138.944C103.179 138.879 103.575 138.832 104.014 138.804C104.462 138.767 104.924 138.748 105.4 138.748C105.904 138.748 106.329 138.781 106.674 138.846C107.029 138.902 107.313 138.995 107.528 139.126C107.752 139.257 107.92 139.429 108.032 139.644C108.144 139.859 108.219 140.12 108.256 140.428C108.303 140.736 108.326 141.095 108.326 141.506V146H107.304L107.262 144.992H107.178C107.029 145.319 106.814 145.566 106.534 145.734C106.263 145.893 105.965 145.995 105.638 146.042C105.311 146.089 104.999 146.112 104.7 146.112ZM105.12 145.174C105.391 145.174 105.643 145.16 105.876 145.132C106.109 145.095 106.315 145.029 106.492 144.936C106.669 144.843 106.809 144.703 106.912 144.516C107.015 144.32 107.085 144.11 107.122 143.886C107.169 143.653 107.192 143.382 107.192 143.074V142.71H104.812C104.448 142.71 104.168 142.738 103.972 142.794C103.776 142.85 103.641 142.967 103.566 143.144C103.501 143.321 103.468 143.587 103.468 143.942C103.468 144.287 103.51 144.549 103.594 144.726C103.678 144.903 103.837 145.025 104.07 145.09C104.313 145.146 104.663 145.174 105.12 145.174ZM113.357 146.112C112.815 146.112 112.367 146.065 112.013 145.972C111.667 145.879 111.387 145.739 111.173 145.552C110.967 145.365 110.813 145.127 110.711 144.838C110.608 144.549 110.538 144.203 110.501 143.802C110.473 143.401 110.459 142.943 110.459 142.43C110.459 141.898 110.477 141.431 110.515 141.03C110.561 140.629 110.641 140.283 110.753 139.994C110.874 139.695 111.037 139.457 111.243 139.28C111.457 139.103 111.733 138.972 112.069 138.888C112.405 138.795 112.82 138.748 113.315 138.748C113.641 138.748 113.982 138.767 114.337 138.804C114.701 138.832 114.999 138.874 115.233 138.93V139.854C115.018 139.817 114.752 139.784 114.435 139.756C114.127 139.728 113.847 139.714 113.595 139.714C113.156 139.714 112.801 139.751 112.531 139.826C112.269 139.901 112.069 140.036 111.929 140.232C111.798 140.428 111.709 140.703 111.663 141.058C111.616 141.413 111.593 141.87 111.593 142.43C111.593 142.999 111.616 143.466 111.663 143.83C111.709 144.185 111.803 144.46 111.943 144.656C112.092 144.843 112.297 144.973 112.559 145.048C112.829 145.113 113.184 145.146 113.623 145.146C113.884 145.146 114.169 145.132 114.477 145.104C114.785 145.076 115.06 145.043 115.303 145.006V145.93C115.069 145.977 114.771 146.019 114.407 146.056C114.043 146.093 113.693 146.112 113.357 146.112ZM117.192 146V135.598H118.34V141.898H119.236L121.756 138.86H123.044L120.146 142.318L123.086 146H121.756L119.236 142.878H118.34V146H117.192ZM130.345 146.112C129.831 146.112 129.402 146.056 129.057 145.944C128.721 145.832 128.455 145.641 128.259 145.37C128.063 145.09 127.923 144.712 127.839 144.236C127.755 143.76 127.713 143.163 127.713 142.444C127.713 141.716 127.75 141.114 127.825 140.638C127.909 140.153 128.049 139.775 128.245 139.504C128.441 139.233 128.707 139.042 129.043 138.93C129.379 138.809 129.803 138.748 130.317 138.748C130.699 138.748 131.04 138.781 131.339 138.846C131.637 138.902 131.894 139.005 132.109 139.154C132.333 139.303 132.51 139.509 132.641 139.77H132.711V135.598H133.859V146H132.837L132.781 144.978H132.697C132.566 145.305 132.375 145.552 132.123 145.72C131.88 145.879 131.605 145.981 131.297 146.028C130.989 146.084 130.671 146.112 130.345 146.112ZM130.793 145.104C131.269 145.104 131.647 145.039 131.927 144.908C132.207 144.777 132.403 144.572 132.515 144.292C132.608 144.031 132.664 143.746 132.683 143.438C132.701 143.13 132.711 142.766 132.711 142.346C132.711 142.001 132.701 141.688 132.683 141.408C132.664 141.119 132.613 140.867 132.529 140.652C132.407 140.335 132.207 140.111 131.927 139.98C131.647 139.84 131.259 139.77 130.765 139.77C130.345 139.77 130.009 139.798 129.757 139.854C129.505 139.91 129.313 140.031 129.183 140.218C129.052 140.395 128.963 140.661 128.917 141.016C128.87 141.361 128.847 141.833 128.847 142.43C128.847 143.027 128.87 143.503 128.917 143.858C128.963 144.213 129.052 144.479 129.183 144.656C129.313 144.833 129.505 144.955 129.757 145.02C130.018 145.076 130.363 145.104 130.793 145.104ZM138.183 146.112C137.66 146.112 137.221 146.051 136.867 145.93C136.521 145.809 136.26 145.599 136.083 145.3C135.915 145.001 135.831 144.581 135.831 144.04C135.831 143.499 135.891 143.074 136.013 142.766C136.143 142.449 136.367 142.225 136.685 142.094C137.002 141.963 137.445 141.898 138.015 141.898C138.108 141.898 138.253 141.903 138.449 141.912C138.654 141.912 138.887 141.917 139.149 141.926C139.41 141.926 139.671 141.931 139.933 141.94C140.203 141.94 140.451 141.945 140.675 141.954V141.506C140.675 141.086 140.647 140.759 140.591 140.526C140.544 140.283 140.441 140.106 140.283 139.994C140.124 139.873 139.9 139.798 139.611 139.77C139.331 139.733 138.957 139.714 138.491 139.714C138.285 139.714 138.043 139.723 137.763 139.742C137.483 139.751 137.207 139.77 136.937 139.798C136.675 139.817 136.465 139.84 136.307 139.868V138.944C136.661 138.879 137.058 138.832 137.497 138.804C137.945 138.767 138.407 138.748 138.883 138.748C139.387 138.748 139.811 138.781 140.157 138.846C140.511 138.902 140.796 138.995 141.011 139.126C141.235 139.257 141.403 139.429 141.515 139.644C141.627 139.859 141.701 140.12 141.739 140.428C141.785 140.736 141.809 141.095 141.809 141.506V146H140.787L140.745 144.992H140.661C140.511 145.319 140.297 145.566 140.017 145.734C139.746 145.893 139.447 145.995 139.121 146.042C138.794 146.089 138.481 146.112 138.183 146.112ZM138.603 145.174C138.873 145.174 139.125 145.16 139.359 145.132C139.592 145.095 139.797 145.029 139.975 144.936C140.152 144.843 140.292 144.703 140.395 144.516C140.497 144.32 140.567 144.11 140.605 143.886C140.651 143.653 140.675 143.382 140.675 143.074V142.71H138.295C137.931 142.71 137.651 142.738 137.455 142.794C137.259 142.85 137.123 142.967 137.049 143.144C136.983 143.321 136.951 143.587 136.951 143.942C136.951 144.287 136.993 144.549 137.077 144.726C137.161 144.903 137.319 145.025 137.553 145.09C137.795 145.146 138.145 145.174 138.603 145.174ZM144.235 146V138.86H145.271L145.313 139.882H145.397C145.481 139.658 145.607 139.462 145.775 139.294C145.953 139.126 146.181 138.995 146.461 138.902C146.751 138.799 147.119 138.748 147.567 138.748C148.202 138.748 148.673 138.841 148.981 139.028C149.289 139.205 149.504 139.49 149.625 139.882H149.709C149.803 139.658 149.938 139.462 150.115 139.294C150.293 139.126 150.531 138.995 150.829 138.902C151.128 138.799 151.497 138.748 151.935 138.748C152.579 138.748 153.06 138.846 153.377 139.042C153.695 139.238 153.905 139.541 154.007 139.952C154.11 140.363 154.161 140.89 154.161 141.534V146H153.027V141.926C153.027 141.441 153.009 141.058 152.971 140.778C152.934 140.489 152.864 140.274 152.761 140.134C152.659 139.985 152.505 139.887 152.299 139.84C152.094 139.793 151.819 139.77 151.473 139.77C151.072 139.77 150.755 139.826 150.521 139.938C150.288 140.041 150.115 140.199 150.003 140.414C149.901 140.629 149.835 140.895 149.807 141.212C149.779 141.529 149.765 141.898 149.765 142.318V146H148.631V141.926C148.631 141.441 148.613 141.058 148.575 140.778C148.538 140.489 148.468 140.274 148.365 140.134C148.263 139.985 148.109 139.887 147.903 139.84C147.698 139.793 147.423 139.77 147.077 139.77C146.676 139.77 146.359 139.831 146.125 139.952C145.892 140.064 145.724 140.227 145.621 140.442C145.519 140.657 145.453 140.923 145.425 141.24C145.397 141.557 145.383 141.917 145.383 142.318V146H144.235ZM158.499 146.112C157.976 146.112 157.538 146.051 157.183 145.93C156.838 145.809 156.576 145.599 156.399 145.3C156.231 145.001 156.147 144.581 156.147 144.04C156.147 143.499 156.208 143.074 156.329 142.766C156.46 142.449 156.684 142.225 157.001 142.094C157.318 141.963 157.762 141.898 158.331 141.898C158.424 141.898 158.569 141.903 158.765 141.912C158.97 141.912 159.204 141.917 159.465 141.926C159.726 141.926 159.988 141.931 160.249 141.94C160.52 141.94 160.767 141.945 160.991 141.954V141.506C160.991 141.086 160.963 140.759 160.907 140.526C160.86 140.283 160.758 140.106 160.599 139.994C160.44 139.873 160.216 139.798 159.927 139.77C159.647 139.733 159.274 139.714 158.807 139.714C158.602 139.714 158.359 139.723 158.079 139.742C157.799 139.751 157.524 139.77 157.253 139.798C156.992 139.817 156.782 139.84 156.623 139.868V138.944C156.978 138.879 157.374 138.832 157.813 138.804C158.261 138.767 158.723 138.748 159.199 138.748C159.703 138.748 160.128 138.781 160.473 138.846C160.828 138.902 161.112 138.995 161.327 139.126C161.551 139.257 161.719 139.429 161.831 139.644C161.943 139.859 162.018 140.12 162.055 140.428C162.102 140.736 162.125 141.095 162.125 141.506V146H161.103L161.061 144.992H160.977C160.828 145.319 160.613 145.566 160.333 145.734C160.062 145.893 159.764 145.995 159.437 146.042C159.11 146.089 158.798 146.112 158.499 146.112ZM158.919 145.174C159.19 145.174 159.442 145.16 159.675 145.132C159.908 145.095 160.114 145.029 160.291 144.936C160.468 144.843 160.608 144.703 160.711 144.516C160.814 144.32 160.884 144.11 160.921 143.886C160.968 143.653 160.991 143.382 160.991 143.074V142.71H158.611C158.247 142.71 157.967 142.738 157.771 142.794C157.575 142.85 157.44 142.967 157.365 143.144C157.3 143.321 157.267 143.587 157.267 143.942C157.267 144.287 157.309 144.549 157.393 144.726C157.477 144.903 157.636 145.025 157.869 145.09C158.112 145.146 158.462 145.174 158.919 145.174ZM167.17 148.884C166.871 148.884 166.563 148.875 166.246 148.856C165.938 148.847 165.644 148.833 165.364 148.814C165.084 148.795 164.846 148.777 164.65 148.758V147.834C164.874 147.853 165.121 147.867 165.392 147.876C165.662 147.895 165.928 147.904 166.19 147.904C166.46 147.913 166.703 147.918 166.918 147.918C167.459 147.918 167.884 147.881 168.192 147.806C168.5 147.731 168.733 147.601 168.892 147.414C169.05 147.227 169.148 146.966 169.186 146.63C169.232 146.294 169.256 145.865 169.256 145.342V145.048H169.186C169.064 145.309 168.896 145.515 168.682 145.664C168.467 145.813 168.21 145.921 167.912 145.986C167.613 146.042 167.272 146.07 166.89 146.07C166.367 146.07 165.933 146.014 165.588 145.902C165.252 145.79 164.986 145.603 164.79 145.342C164.594 145.071 164.454 144.698 164.37 144.222C164.295 143.746 164.258 143.149 164.258 142.43C164.258 141.702 164.3 141.1 164.384 140.624C164.468 140.148 164.608 139.775 164.804 139.504C165 139.233 165.266 139.042 165.602 138.93C165.947 138.809 166.381 138.748 166.904 138.748C167.221 138.748 167.534 138.776 167.842 138.832C168.15 138.879 168.425 138.986 168.668 139.154C168.92 139.322 169.111 139.565 169.242 139.882H169.326L169.382 138.86H170.404V145.076C170.404 145.767 170.366 146.355 170.292 146.84C170.226 147.325 170.086 147.717 169.872 148.016C169.657 148.315 169.335 148.534 168.906 148.674C168.476 148.814 167.898 148.884 167.17 148.884ZM167.338 145.076C167.804 145.076 168.173 145.015 168.444 144.894C168.714 144.763 168.91 144.563 169.032 144.292C169.134 144.068 169.195 143.802 169.214 143.494C169.242 143.186 169.256 142.827 169.256 142.416C169.256 142.024 169.246 141.679 169.228 141.38C169.209 141.072 169.148 140.811 169.046 140.596C168.924 140.297 168.724 140.083 168.444 139.952C168.164 139.821 167.795 139.756 167.338 139.756C166.908 139.756 166.563 139.789 166.302 139.854C166.05 139.91 165.858 140.027 165.728 140.204C165.597 140.381 165.508 140.647 165.462 141.002C165.415 141.357 165.392 141.828 165.392 142.416C165.392 143.004 165.415 143.475 165.462 143.83C165.508 144.185 165.597 144.451 165.728 144.628C165.858 144.805 166.05 144.927 166.302 144.992C166.563 145.048 166.908 145.076 167.338 145.076ZM175.721 146.112C175.143 146.112 174.657 146.075 174.265 146C173.883 145.925 173.575 145.804 173.341 145.636C173.108 145.459 172.931 145.23 172.809 144.95C172.688 144.661 172.609 144.311 172.571 143.9C172.534 143.489 172.515 143.004 172.515 142.444C172.515 141.781 172.543 141.217 172.599 140.75C172.655 140.274 172.781 139.891 172.977 139.602C173.183 139.303 173.5 139.089 173.929 138.958C174.359 138.818 174.937 138.748 175.665 138.748C176.216 138.748 176.664 138.79 177.009 138.874C177.364 138.958 177.644 139.089 177.849 139.266C178.055 139.443 178.204 139.681 178.297 139.98C178.4 140.269 178.465 140.619 178.493 141.03C178.521 141.431 178.535 141.898 178.535 142.43V142.808H173.649C173.649 143.293 173.673 143.69 173.719 143.998C173.766 144.306 173.859 144.544 173.999 144.712C174.149 144.88 174.377 144.997 174.685 145.062C175.003 145.127 175.432 145.16 175.973 145.16C176.197 145.16 176.445 145.155 176.715 145.146C176.986 145.127 177.257 145.104 177.527 145.076C177.798 145.048 178.041 145.02 178.255 144.992V145.916C178.059 145.953 177.817 145.986 177.527 146.014C177.247 146.042 176.949 146.065 176.631 146.084C176.323 146.103 176.02 146.112 175.721 146.112ZM177.429 142.234V141.856C177.429 141.371 177.401 140.988 177.345 140.708C177.289 140.419 177.191 140.204 177.051 140.064C176.921 139.915 176.739 139.817 176.505 139.77C176.272 139.723 175.983 139.7 175.637 139.7C175.189 139.7 174.835 139.733 174.573 139.798C174.312 139.854 174.116 139.961 173.985 140.12C173.855 140.279 173.766 140.507 173.719 140.806C173.673 141.105 173.649 141.501 173.649 141.996H177.695L177.429 142.234ZM186.753 146.112C186.165 146.112 185.675 146.075 185.283 146C184.9 145.935 184.597 145.823 184.373 145.664C184.149 145.505 183.981 145.286 183.869 145.006C183.766 144.726 183.701 144.376 183.673 143.956C183.645 143.527 183.631 143.018 183.631 142.43C183.631 141.842 183.645 141.338 183.673 140.918C183.701 140.489 183.766 140.134 183.869 139.854C183.981 139.574 184.149 139.355 184.373 139.196C184.597 139.037 184.9 138.925 185.283 138.86C185.675 138.785 186.165 138.748 186.753 138.748C187.35 138.748 187.84 138.785 188.223 138.86C188.605 138.925 188.909 139.037 189.133 139.196C189.366 139.355 189.534 139.574 189.637 139.854C189.749 140.134 189.819 140.489 189.847 140.918C189.875 141.338 189.889 141.842 189.889 142.43C189.889 143.018 189.875 143.527 189.847 143.956C189.819 144.376 189.749 144.726 189.637 145.006C189.534 145.286 189.366 145.505 189.133 145.664C188.909 145.823 188.605 145.935 188.223 146C187.84 146.075 187.35 146.112 186.753 146.112ZM186.753 145.146C187.257 145.146 187.644 145.113 187.915 145.048C188.185 144.983 188.377 144.857 188.489 144.67C188.61 144.483 188.68 144.213 188.699 143.858C188.727 143.494 188.741 143.018 188.741 142.43C188.741 141.842 188.727 141.371 188.699 141.016C188.68 140.652 188.61 140.377 188.489 140.19C188.377 140.003 188.185 139.877 187.915 139.812C187.644 139.747 187.257 139.714 186.753 139.714C186.258 139.714 185.871 139.747 185.591 139.812C185.32 139.877 185.129 140.003 185.017 140.19C184.905 140.377 184.835 140.652 184.807 141.016C184.779 141.371 184.765 141.842 184.765 142.43C184.765 143.018 184.779 143.494 184.807 143.858C184.835 144.213 184.905 144.483 185.017 144.67C185.129 144.857 185.32 144.983 185.591 145.048C185.871 145.113 186.258 145.146 186.753 145.146ZM192.621 146V139.826H191.165V138.86H192.621V137.726C192.621 137.325 192.653 136.998 192.719 136.746C192.784 136.485 192.887 136.279 193.027 136.13C193.176 135.971 193.367 135.855 193.601 135.78C193.834 135.705 194.114 135.659 194.441 135.64C194.777 135.621 195.164 135.612 195.603 135.612V136.48C195.22 136.48 194.907 136.494 194.665 136.522C194.422 136.55 194.235 136.601 194.105 136.676C193.974 136.741 193.881 136.844 193.825 136.984C193.778 137.124 193.755 137.306 193.755 137.53V138.86H195.603V139.826H193.755V146H192.621ZM203.253 148.884C202.982 148.884 202.697 148.875 202.399 148.856C202.109 148.847 201.829 148.833 201.559 148.814C201.297 148.805 201.064 148.786 200.859 148.758V147.848C201.167 147.857 201.447 147.867 201.699 147.876C201.96 147.895 202.198 147.904 202.413 147.904C202.637 147.913 202.837 147.918 203.015 147.918C203.556 147.918 203.981 147.876 204.289 147.792C204.606 147.708 204.839 147.568 204.989 147.372C205.138 147.185 205.231 146.933 205.269 146.616C205.315 146.299 205.339 145.911 205.339 145.454V145.034H205.255C205.18 145.221 205.054 145.393 204.877 145.552C204.699 145.711 204.457 145.837 204.149 145.93C203.841 146.023 203.439 146.07 202.945 146.07C202.422 146.07 201.997 146.019 201.671 145.916C201.353 145.804 201.111 145.636 200.943 145.412C200.775 145.179 200.658 144.889 200.593 144.544C200.537 144.199 200.509 143.788 200.509 143.312V138.86H201.657V142.906C201.657 143.391 201.675 143.779 201.713 144.068C201.75 144.357 201.829 144.577 201.951 144.726C202.081 144.866 202.263 144.959 202.497 145.006C202.73 145.053 203.033 145.076 203.407 145.076C203.873 145.076 204.237 145.02 204.499 144.908C204.76 144.787 204.947 144.614 205.059 144.39C205.18 144.166 205.255 143.9 205.283 143.592C205.32 143.275 205.339 142.92 205.339 142.528V138.86H206.473V145.118C206.473 145.799 206.435 146.378 206.361 146.854C206.295 147.339 206.151 147.727 205.927 148.016C205.712 148.315 205.39 148.534 204.961 148.674C204.531 148.814 203.962 148.884 203.253 148.884ZM211.718 146.112C211.13 146.112 210.64 146.075 210.248 146C209.865 145.935 209.562 145.823 209.338 145.664C209.114 145.505 208.946 145.286 208.834 145.006C208.731 144.726 208.666 144.376 208.638 143.956C208.61 143.527 208.596 143.018 208.596 142.43C208.596 141.842 208.61 141.338 208.638 140.918C208.666 140.489 208.731 140.134 208.834 139.854C208.946 139.574 209.114 139.355 209.338 139.196C209.562 139.037 209.865 138.925 210.248 138.86C210.64 138.785 211.13 138.748 211.718 138.748C212.315 138.748 212.805 138.785 213.188 138.86C213.57 138.925 213.874 139.037 214.098 139.196C214.331 139.355 214.499 139.574 214.602 139.854C214.714 140.134 214.784 140.489 214.812 140.918C214.84 141.338 214.854 141.842 214.854 142.43C214.854 143.018 214.84 143.527 214.812 143.956C214.784 144.376 214.714 144.726 214.602 145.006C214.499 145.286 214.331 145.505 214.098 145.664C213.874 145.823 213.57 145.935 213.188 146C212.805 146.075 212.315 146.112 211.718 146.112ZM211.718 145.146C212.222 145.146 212.609 145.113 212.88 145.048C213.15 144.983 213.342 144.857 213.454 144.67C213.575 144.483 213.645 144.213 213.664 143.858C213.692 143.494 213.706 143.018 213.706 142.43C213.706 141.842 213.692 141.371 213.664 141.016C213.645 140.652 213.575 140.377 213.454 140.19C213.342 140.003 213.15 139.877 212.88 139.812C212.609 139.747 212.222 139.714 211.718 139.714C211.223 139.714 210.836 139.747 210.556 139.812C210.285 139.877 210.094 140.003 209.982 140.19C209.87 140.377 209.8 140.652 209.772 141.016C209.744 141.371 209.73 141.842 209.73 142.43C209.73 143.018 209.744 143.494 209.772 143.858C209.8 144.213 209.87 144.483 209.982 144.67C210.094 144.857 210.285 144.983 210.556 145.048C210.836 145.113 211.223 145.146 211.718 145.146ZM219.406 146.112C218.883 146.112 218.458 146.056 218.132 145.944C217.814 145.832 217.572 145.664 217.404 145.44C217.236 145.216 217.119 144.931 217.054 144.586C216.998 144.231 216.97 143.811 216.97 143.326V138.86H218.118V142.934C218.118 143.41 218.136 143.793 218.174 144.082C218.211 144.371 218.29 144.591 218.412 144.74C218.542 144.88 218.724 144.973 218.958 145.02C219.191 145.067 219.494 145.09 219.868 145.09C220.334 145.09 220.698 145.034 220.96 144.922C221.221 144.801 221.408 144.633 221.52 144.418C221.641 144.194 221.716 143.928 221.744 143.62C221.781 143.303 221.8 142.943 221.8 142.542V138.86H222.934V146H221.912L221.87 144.978H221.772C221.678 145.202 221.538 145.398 221.352 145.566C221.174 145.734 220.927 145.869 220.61 145.972C220.292 146.065 219.891 146.112 219.406 146.112ZM225.35 146V138.86H226.372L226.428 140.232H226.512C226.634 139.831 226.806 139.523 227.03 139.308C227.254 139.093 227.525 138.949 227.842 138.874C228.16 138.79 228.51 138.748 228.892 138.748V139.868C228.248 139.868 227.754 139.971 227.408 140.176C227.063 140.381 226.825 140.699 226.694 141.128C226.564 141.557 226.498 142.099 226.498 142.752V146H225.35ZM235.578 146L232.96 138.86H234.15L236.25 144.81H236.362L238.448 138.86H239.624L237.006 146H235.578ZM242.991 146.112C242.468 146.112 242.03 146.051 241.675 145.93C241.33 145.809 241.068 145.599 240.891 145.3C240.723 145.001 240.639 144.581 240.639 144.04C240.639 143.499 240.7 143.074 240.821 142.766C240.952 142.449 241.176 142.225 241.493 142.094C241.81 141.963 242.254 141.898 242.823 141.898C242.916 141.898 243.061 141.903 243.257 141.912C243.462 141.912 243.696 141.917 243.957 141.926C244.218 141.926 244.48 141.931 244.741 141.94C245.012 141.94 245.259 141.945 245.483 141.954V141.506C245.483 141.086 245.455 140.759 245.399 140.526C245.352 140.283 245.25 140.106 245.091 139.994C244.932 139.873 244.708 139.798 244.419 139.77C244.139 139.733 243.766 139.714 243.299 139.714C243.094 139.714 242.851 139.723 242.571 139.742C242.291 139.751 242.016 139.77 241.745 139.798C241.484 139.817 241.274 139.84 241.115 139.868V138.944C241.47 138.879 241.866 138.832 242.305 138.804C242.753 138.767 243.215 138.748 243.691 138.748C244.195 138.748 244.62 138.781 244.965 138.846C245.32 138.902 245.604 138.995 245.819 139.126C246.043 139.257 246.211 139.429 246.323 139.644C246.435 139.859 246.51 140.12 246.547 140.428C246.594 140.736 246.617 141.095 246.617 141.506V146H245.595L245.553 144.992H245.469C245.32 145.319 245.105 145.566 244.825 145.734C244.554 145.893 244.256 145.995 243.929 146.042C243.602 146.089 243.29 146.112 242.991 146.112ZM243.411 145.174C243.682 145.174 243.934 145.16 244.167 145.132C244.4 145.095 244.606 145.029 244.783 144.936C244.96 144.843 245.1 144.703 245.203 144.516C245.306 144.32 245.376 144.11 245.413 143.886C245.46 143.653 245.483 143.382 245.483 143.074V142.71H243.103C242.739 142.71 242.459 142.738 242.263 142.794C242.067 142.85 241.932 142.967 241.857 143.144C241.792 143.321 241.759 143.587 241.759 143.942C241.759 144.287 241.801 144.549 241.885 144.726C241.969 144.903 242.128 145.025 242.361 145.09C242.604 145.146 242.954 145.174 243.411 145.174ZM249.044 146V138.86H250.08L250.122 139.882H250.206C250.309 139.658 250.449 139.462 250.626 139.294C250.813 139.126 251.06 138.995 251.368 138.902C251.685 138.799 252.087 138.748 252.572 138.748C253.104 138.748 253.529 138.804 253.846 138.916C254.163 139.028 254.406 139.196 254.574 139.42C254.751 139.644 254.868 139.933 254.924 140.288C254.98 140.633 255.008 141.049 255.008 141.534V146H253.874V141.926C253.874 141.441 253.851 141.058 253.804 140.778C253.767 140.489 253.687 140.274 253.566 140.134C253.445 139.985 253.267 139.887 253.034 139.84C252.801 139.793 252.493 139.77 252.11 139.77C251.653 139.77 251.293 139.831 251.032 139.952C250.771 140.064 250.579 140.232 250.458 140.456C250.337 140.671 250.262 140.937 250.234 141.254C250.206 141.562 250.192 141.917 250.192 142.318V146H249.044ZM260.043 148.884C259.744 148.884 259.436 148.875 259.119 148.856C258.811 148.847 258.517 148.833 258.237 148.814C257.957 148.795 257.719 148.777 257.523 148.758V147.834C257.747 147.853 257.994 147.867 258.265 147.876C258.535 147.895 258.801 147.904 259.063 147.904C259.333 147.913 259.576 147.918 259.791 147.918C260.332 147.918 260.757 147.881 261.065 147.806C261.373 147.731 261.606 147.601 261.765 147.414C261.923 147.227 262.021 146.966 262.059 146.63C262.105 146.294 262.129 145.865 262.129 145.342V145.048H262.059C261.937 145.309 261.769 145.515 261.555 145.664C261.34 145.813 261.083 145.921 260.785 145.986C260.486 146.042 260.145 146.07 259.763 146.07C259.24 146.07 258.806 146.014 258.461 145.902C258.125 145.79 257.859 145.603 257.663 145.342C257.467 145.071 257.327 144.698 257.243 144.222C257.168 143.746 257.131 143.149 257.131 142.43C257.131 141.702 257.173 141.1 257.257 140.624C257.341 140.148 257.481 139.775 257.677 139.504C257.873 139.233 258.139 139.042 258.475 138.93C258.82 138.809 259.254 138.748 259.777 138.748C260.094 138.748 260.407 138.776 260.715 138.832C261.023 138.879 261.298 138.986 261.541 139.154C261.793 139.322 261.984 139.565 262.115 139.882H262.199L262.255 138.86H263.277V145.076C263.277 145.767 263.239 146.355 263.165 146.84C263.099 147.325 262.959 147.717 262.745 148.016C262.53 148.315 262.208 148.534 261.779 148.674C261.349 148.814 260.771 148.884 260.043 148.884ZM260.211 145.076C260.677 145.076 261.046 145.015 261.317 144.894C261.587 144.763 261.783 144.563 261.905 144.292C262.007 144.068 262.068 143.802 262.087 143.494C262.115 143.186 262.129 142.827 262.129 142.416C262.129 142.024 262.119 141.679 262.101 141.38C262.082 141.072 262.021 140.811 261.919 140.596C261.797 140.297 261.597 140.083 261.317 139.952C261.037 139.821 260.668 139.756 260.211 139.756C259.781 139.756 259.436 139.789 259.175 139.854C258.923 139.91 258.731 140.027 258.601 140.204C258.47 140.381 258.381 140.647 258.335 141.002C258.288 141.357 258.265 141.828 258.265 142.416C258.265 143.004 258.288 143.475 258.335 143.83C258.381 144.185 258.47 144.451 258.601 144.628C258.731 144.805 258.923 144.927 259.175 144.992C259.436 145.048 259.781 145.076 260.211 145.076ZM268.119 146.112C267.596 146.112 267.171 146.056 266.845 145.944C266.527 145.832 266.285 145.664 266.117 145.44C265.949 145.216 265.832 144.931 265.767 144.586C265.711 144.231 265.683 143.811 265.683 143.326V138.86H266.831V142.934C266.831 143.41 266.849 143.793 266.887 144.082C266.924 144.371 267.003 144.591 267.125 144.74C267.255 144.88 267.437 144.973 267.671 145.02C267.904 145.067 268.207 145.09 268.581 145.09C269.047 145.09 269.411 145.034 269.673 144.922C269.934 144.801 270.121 144.633 270.233 144.418C270.354 144.194 270.429 143.928 270.457 143.62C270.494 143.303 270.513 142.943 270.513 142.542V138.86H271.647V146H270.625L270.583 144.978H270.485C270.391 145.202 270.251 145.398 270.065 145.566C269.887 145.734 269.64 145.869 269.323 145.972C269.005 146.065 268.604 146.112 268.119 146.112ZM275.981 146.112C275.459 146.112 275.02 146.051 274.665 145.93C274.32 145.809 274.059 145.599 273.881 145.3C273.713 145.001 273.629 144.581 273.629 144.04C273.629 143.499 273.69 143.074 273.811 142.766C273.942 142.449 274.166 142.225 274.483 142.094C274.801 141.963 275.244 141.898 275.813 141.898C275.907 141.898 276.051 141.903 276.247 141.912C276.453 141.912 276.686 141.917 276.947 141.926C277.209 141.926 277.47 141.931 277.731 141.94C278.002 141.94 278.249 141.945 278.473 141.954V141.506C278.473 141.086 278.445 140.759 278.389 140.526C278.343 140.283 278.24 140.106 278.081 139.994C277.923 139.873 277.699 139.798 277.409 139.77C277.129 139.733 276.756 139.714 276.289 139.714C276.084 139.714 275.841 139.723 275.561 139.742C275.281 139.751 275.006 139.77 274.735 139.798C274.474 139.817 274.264 139.84 274.105 139.868V138.944C274.46 138.879 274.857 138.832 275.295 138.804C275.743 138.767 276.205 138.748 276.681 138.748C277.185 138.748 277.61 138.781 277.955 138.846C278.31 138.902 278.595 138.995 278.809 139.126C279.033 139.257 279.201 139.429 279.313 139.644C279.425 139.859 279.5 140.12 279.537 140.428C279.584 140.736 279.607 141.095 279.607 141.506V146H278.585L278.543 144.992H278.459C278.31 145.319 278.095 145.566 277.815 145.734C277.545 145.893 277.246 145.995 276.919 146.042C276.593 146.089 276.28 146.112 275.981 146.112ZM276.401 145.174C276.672 145.174 276.924 145.16 277.157 145.132C277.391 145.095 277.596 145.029 277.773 144.936C277.951 144.843 278.091 144.703 278.193 144.516C278.296 144.32 278.366 144.11 278.403 143.886C278.45 143.653 278.473 143.382 278.473 143.074V142.71H276.093C275.729 142.71 275.449 142.738 275.253 142.794C275.057 142.85 274.922 142.967 274.847 143.144C274.782 143.321 274.749 143.587 274.749 143.942C274.749 144.287 274.791 144.549 274.875 144.726C274.959 144.903 275.118 145.025 275.351 145.09C275.594 145.146 275.944 145.174 276.401 145.174ZM282.034 146V138.86H283.056L283.112 140.232H283.196C283.317 139.831 283.49 139.523 283.714 139.308C283.938 139.093 284.209 138.949 284.526 138.874C284.843 138.79 285.193 138.748 285.576 138.748V139.868C284.932 139.868 284.437 139.971 284.092 140.176C283.747 140.381 283.509 140.699 283.378 141.128C283.247 141.557 283.182 142.099 283.182 142.752V146H282.034ZM289.444 146.112C288.931 146.112 288.502 146.056 288.156 145.944C287.82 145.832 287.554 145.641 287.358 145.37C287.162 145.09 287.022 144.712 286.938 144.236C286.854 143.76 286.812 143.163 286.812 142.444C286.812 141.716 286.85 141.114 286.924 140.638C287.008 140.153 287.148 139.775 287.344 139.504C287.54 139.233 287.806 139.042 288.142 138.93C288.478 138.809 288.903 138.748 289.416 138.748C289.799 138.748 290.14 138.781 290.438 138.846C290.737 138.902 290.994 139.005 291.208 139.154C291.432 139.303 291.61 139.509 291.74 139.77H291.81V135.598H292.958V146H291.936L291.88 144.978H291.796C291.666 145.305 291.474 145.552 291.222 145.72C290.98 145.879 290.704 145.981 290.396 146.028C290.088 146.084 289.771 146.112 289.444 146.112ZM289.892 145.104C290.368 145.104 290.746 145.039 291.026 144.908C291.306 144.777 291.502 144.572 291.614 144.292C291.708 144.031 291.764 143.746 291.782 143.438C291.801 143.13 291.81 142.766 291.81 142.346C291.81 142.001 291.801 141.688 291.782 141.408C291.764 141.119 291.712 140.867 291.628 140.652C291.507 140.335 291.306 140.111 291.026 139.98C290.746 139.84 290.359 139.77 289.864 139.77C289.444 139.77 289.108 139.798 288.856 139.854C288.604 139.91 288.413 140.031 288.282 140.218C288.152 140.395 288.063 140.661 288.016 141.016C287.97 141.361 287.946 141.833 287.946 142.43C287.946 143.027 287.97 143.503 288.016 143.858C288.063 144.213 288.152 144.479 288.282 144.656C288.413 144.833 288.604 144.955 288.856 145.02C289.118 145.076 289.463 145.104 289.892 145.104Z" fill="black"/>
<path d="M90 65.5L115.5 40L141 65.5L115.5 91L90 65.5Z" fill="#131313"/>
<path d="M90 65.5L115.5 40V91L90 65.5Z" fill="#0098DC"/>
<path d="M92.885 65.5L115.5 42.885L138.115 65.5L115.5 88.115L92.885 65.5Z" stroke="#131313" stroke-width="4.08"/>
<path d="M158.692 68.8071V65.9662H166.339V68.8071H158.692ZM180.466 76V59.0151L176.265 60.9191V57.9573L181.493 55.2071H183.881V76H180.466Z" fill="black"/>
<path d="M358 203.919V27.9996L373.099 12.9004H650L665.099 27.9996V203.919L650 219.018H373.099L358 203.919Z" fill="white" fill-opacity="0.69" stroke="black" stroke-width="4"/>
<path d="M358 102.5L358 27.9996L373.099 12.9004H650L665.099 27.9996L665.099 102.5L650 117.599H373.099L358 102.5Z" stroke="black" stroke-width="4"/>
<path d="M503.5 2H394.5L384 12.5L394.5 23H503.5L514 12.5L503.5 2Z" fill="black"/>
<path d="M400.565 18L404.725 6.992H406.453L410.597 18H409.173L408.037 14.992H403.093L401.957 18H400.565ZM403.509 13.792H407.621L405.605 8.4H405.525L403.509 13.792ZM412.431 18V9.84H413.599L413.663 11.408H413.759C413.897 10.9493 414.095 10.5973 414.351 10.352C414.607 10.1067 414.916 9.94133 415.279 9.856C415.641 9.76 416.041 9.712 416.479 9.712V10.992C415.743 10.992 415.177 11.1093 414.783 11.344C414.388 11.5787 414.116 11.9413 413.967 12.432C413.817 12.9227 413.743 13.5413 413.743 14.288V18H412.431ZM421.204 18.128C420.585 18.128 420.073 18.0747 419.668 17.968C419.273 17.8613 418.953 17.7013 418.708 17.488C418.473 17.2747 418.297 17.0027 418.18 16.672C418.062 16.3413 417.982 15.9467 417.94 15.488C417.908 15.0293 417.892 14.5067 417.892 13.92C417.892 13.312 417.913 12.7787 417.956 12.32C418.009 11.8613 418.1 11.4667 418.228 11.136C418.366 10.7947 418.553 10.5227 418.788 10.32C419.033 10.1173 419.348 9.968 419.732 9.872C420.116 9.76533 420.59 9.712 421.156 9.712C421.529 9.712 421.918 9.73333 422.324 9.776C422.74 9.808 423.081 9.856 423.348 9.92V10.976C423.102 10.9333 422.798 10.896 422.436 10.864C422.084 10.832 421.764 10.816 421.476 10.816C420.974 10.816 420.569 10.8587 420.26 10.944C419.961 11.0293 419.732 11.184 419.572 11.408C419.422 11.632 419.321 11.9467 419.268 12.352C419.214 12.7573 419.188 13.28 419.188 13.92C419.188 14.5707 419.214 15.104 419.268 15.52C419.321 15.9253 419.428 16.24 419.588 16.464C419.758 16.6773 419.993 16.8267 420.292 16.912C420.601 16.9867 421.006 17.024 421.508 17.024C421.806 17.024 422.132 17.008 422.484 16.976C422.836 16.944 423.15 16.9067 423.428 16.864V17.92C423.161 17.9733 422.82 18.0213 422.404 18.064C421.988 18.1067 421.588 18.128 421.204 18.128ZM427.779 18.128C427.182 18.128 426.68 18.0587 426.275 17.92C425.88 17.7813 425.582 17.5413 425.379 17.2C425.187 16.8587 425.091 16.3787 425.091 15.76C425.091 15.1413 425.16 14.656 425.299 14.304C425.448 13.9413 425.704 13.6853 426.067 13.536C426.43 13.3867 426.936 13.312 427.587 13.312C427.694 13.312 427.859 13.3173 428.083 13.328C428.318 13.328 428.584 13.3333 428.883 13.344C429.182 13.344 429.48 13.3493 429.779 13.36C430.088 13.36 430.371 13.3653 430.627 13.376V12.864C430.627 12.384 430.595 12.0107 430.531 11.744C430.478 11.4667 430.36 11.264 430.179 11.136C429.998 10.9973 429.742 10.912 429.411 10.88C429.091 10.8373 428.664 10.816 428.131 10.816C427.896 10.816 427.619 10.8267 427.299 10.848C426.979 10.8587 426.664 10.88 426.355 10.912C426.056 10.9333 425.816 10.96 425.635 10.992V9.936C426.04 9.86133 426.494 9.808 426.995 9.776C427.507 9.73333 428.035 9.712 428.579 9.712C429.155 9.712 429.64 9.74933 430.035 9.824C430.44 9.888 430.766 9.99467 431.011 10.144C431.267 10.2933 431.459 10.4907 431.587 10.736C431.715 10.9813 431.8 11.28 431.843 11.632C431.896 11.984 431.923 12.3947 431.923 12.864V18H430.755L430.707 16.848H430.611C430.44 17.2213 430.195 17.504 429.875 17.696C429.566 17.8773 429.224 17.9947 428.851 18.048C428.478 18.1013 428.12 18.128 427.779 18.128ZM428.259 17.056C428.568 17.056 428.856 17.04 429.123 17.008C429.39 16.9653 429.624 16.8907 429.827 16.784C430.03 16.6773 430.19 16.5173 430.307 16.304C430.424 16.08 430.504 15.84 430.547 15.584C430.6 15.3173 430.627 15.008 430.627 14.656V14.24H427.907C427.491 14.24 427.171 14.272 426.947 14.336C426.723 14.4 426.568 14.5333 426.483 14.736C426.408 14.9387 426.371 15.2427 426.371 15.648C426.371 16.0427 426.419 16.3413 426.515 16.544C426.611 16.7467 426.792 16.8853 427.059 16.96C427.336 17.024 427.736 17.056 428.259 17.056ZM434.696 18V9.84H435.88L435.928 11.008H436.024C436.142 10.752 436.302 10.528 436.504 10.336C436.718 10.144 437 9.99467 437.352 9.888C437.715 9.77067 438.174 9.712 438.728 9.712C439.336 9.712 439.822 9.776 440.184 9.904C440.547 10.032 440.824 10.224 441.016 10.48C441.219 10.736 441.352 11.0667 441.416 11.472C441.48 11.8667 441.512 12.3413 441.512 12.896V18H440.216V13.344C440.216 12.7893 440.19 12.352 440.136 12.032C440.094 11.7013 440.003 11.456 439.864 11.296C439.726 11.1253 439.523 11.0133 439.256 10.96C438.99 10.9067 438.638 10.88 438.2 10.88C437.678 10.88 437.267 10.9493 436.968 11.088C436.67 11.216 436.451 11.408 436.312 11.664C436.174 11.9093 436.088 12.2133 436.056 12.576C436.024 12.928 436.008 13.3333 436.008 13.792V18H434.696ZM447.602 18.128C446.941 18.128 446.386 18.0853 445.938 18C445.501 17.9147 445.149 17.776 444.882 17.584C444.616 17.3813 444.413 17.12 444.274 16.8C444.136 16.4693 444.045 16.0693 444.002 15.6C443.96 15.1307 443.938 14.576 443.938 13.936C443.938 13.1787 443.97 12.5333 444.034 12C444.098 11.456 444.242 11.0187 444.466 10.688C444.701 10.3467 445.064 10.1013 445.554 9.952C446.045 9.792 446.706 9.712 447.538 9.712C448.168 9.712 448.68 9.76 449.074 9.856C449.48 9.952 449.8 10.1013 450.034 10.304C450.269 10.5067 450.44 10.7787 450.546 11.12C450.664 11.4507 450.738 11.8507 450.77 12.32C450.802 12.7787 450.818 13.312 450.818 13.92V14.352H445.234C445.234 14.9067 445.261 15.36 445.314 15.712C445.368 16.064 445.474 16.336 445.634 16.528C445.805 16.72 446.066 16.8533 446.418 16.928C446.781 17.0027 447.272 17.04 447.89 17.04C448.146 17.04 448.429 17.0347 448.738 17.024C449.048 17.0027 449.357 16.976 449.666 16.944C449.976 16.912 450.253 16.88 450.498 16.848V17.904C450.274 17.9467 449.997 17.984 449.666 18.016C449.346 18.048 449.005 18.0747 448.642 18.096C448.29 18.1173 447.944 18.128 447.602 18.128ZM449.554 13.696V13.264C449.554 12.7093 449.522 12.272 449.458 11.952C449.394 11.6213 449.282 11.376 449.122 11.216C448.973 11.0453 448.765 10.9333 448.498 10.88C448.232 10.8267 447.901 10.8 447.506 10.8C446.994 10.8 446.589 10.8373 446.29 10.912C445.992 10.976 445.768 11.0987 445.618 11.28C445.469 11.4613 445.368 11.7227 445.314 12.064C445.261 12.4053 445.234 12.8587 445.234 13.424H449.858L449.554 13.696ZM457.202 18V6.992H462.322C463.047 6.992 463.623 7.104 464.05 7.328C464.476 7.552 464.78 7.872 464.962 8.288C465.143 8.69333 465.234 9.184 465.234 9.76C465.234 10.2293 465.17 10.6453 465.042 11.008C464.914 11.36 464.711 11.648 464.434 11.872C464.167 12.096 463.81 12.256 463.362 12.352V12.416C463.906 12.512 464.322 12.688 464.61 12.944C464.898 13.1893 465.095 13.4987 465.202 13.872C465.308 14.2453 465.362 14.656 465.362 15.104C465.362 15.488 465.314 15.856 465.218 16.208C465.132 16.56 464.978 16.8693 464.754 17.136C464.54 17.4027 464.231 17.616 463.826 17.776C463.42 17.9253 462.898 18 462.258 18H457.202ZM458.578 16.816H461.938C462.46 16.816 462.871 16.7573 463.17 16.64C463.468 16.512 463.676 16.3093 463.794 16.032C463.922 15.744 463.986 15.376 463.986 14.928C463.986 14.4693 463.916 14.1013 463.778 13.824C463.65 13.536 463.436 13.3333 463.138 13.216C462.839 13.088 462.439 13.024 461.938 13.024H458.578V16.816ZM458.578 11.824H461.874C462.322 11.824 462.69 11.76 462.978 11.632C463.276 11.504 463.495 11.3067 463.634 11.04C463.783 10.7627 463.858 10.4213 463.858 10.016C463.858 9.568 463.799 9.21067 463.682 8.944C463.575 8.67733 463.378 8.48533 463.09 8.368C462.802 8.24 462.396 8.176 461.874 8.176H458.578V11.824ZM470.668 18.128C470.07 18.128 469.585 18.064 469.212 17.936C468.849 17.808 468.572 17.616 468.38 17.36C468.188 17.104 468.054 16.7787 467.98 16.384C467.916 15.9787 467.884 15.4987 467.884 14.944V9.84H469.196V14.496C469.196 15.04 469.217 15.4773 469.26 15.808C469.302 16.1387 469.393 16.3893 469.532 16.56C469.681 16.72 469.889 16.8267 470.156 16.88C470.422 16.9333 470.769 16.96 471.196 16.96C471.729 16.96 472.145 16.896 472.444 16.768C472.742 16.6293 472.956 16.4373 473.084 16.192C473.222 15.936 473.308 15.632 473.34 15.28C473.382 14.9173 473.404 14.5067 473.404 14.048V9.84H474.7V18H473.532L473.484 16.832H473.372C473.265 17.088 473.105 17.312 472.892 17.504C472.689 17.696 472.406 17.8507 472.044 17.968C471.681 18.0747 471.222 18.128 470.668 18.128ZM477.462 18V6.112H478.774V18H477.462ZM481.524 18V6.112H482.836V18H481.524ZM488.915 18.128C488.254 18.128 487.699 18.0853 487.251 18C486.814 17.9147 486.462 17.776 486.195 17.584C485.928 17.3813 485.726 17.12 485.587 16.8C485.448 16.4693 485.358 16.0693 485.315 15.6C485.272 15.1307 485.251 14.576 485.251 13.936C485.251 13.1787 485.283 12.5333 485.347 12C485.411 11.456 485.555 11.0187 485.779 10.688C486.014 10.3467 486.376 10.1013 486.867 9.952C487.358 9.792 488.019 9.712 488.851 9.712C489.48 9.712 489.992 9.76 490.387 9.856C490.792 9.952 491.112 10.1013 491.347 10.304C491.582 10.5067 491.752 10.7787 491.859 11.12C491.976 11.4507 492.051 11.8507 492.083 12.32C492.115 12.7787 492.131 13.312 492.131 13.92V14.352H486.547C486.547 14.9067 486.574 15.36 486.627 15.712C486.68 16.064 486.787 16.336 486.947 16.528C487.118 16.72 487.379 16.8533 487.731 16.928C488.094 17.0027 488.584 17.04 489.203 17.04C489.459 17.04 489.742 17.0347 490.051 17.024C490.36 17.0027 490.67 16.976 490.979 16.944C491.288 16.912 491.566 16.88 491.811 16.848V17.904C491.587 17.9467 491.31 17.984 490.979 18.016C490.659 18.048 490.318 18.0747 489.955 18.096C489.603 18.1173 489.256 18.128 488.915 18.128ZM490.867 13.696V13.264C490.867 12.7093 490.835 12.272 490.771 11.952C490.707 11.6213 490.595 11.376 490.435 11.216C490.286 11.0453 490.078 10.9333 489.811 10.88C489.544 10.8267 489.214 10.8 488.819 10.8C488.307 10.8 487.902 10.8373 487.603 10.912C487.304 10.976 487.08 11.0987 486.931 11.28C486.782 11.4613 486.68 11.7227 486.627 12.064C486.574 12.4053 486.547 12.8587 486.547 13.424H491.171L490.867 13.696ZM495.212 18V10.944H493.564V9.84H495.212V7.472H496.508V9.84H498.46V10.944H496.508V18H495.212Z" fill="white"/>
<path d="M375.606 146.112C375.261 146.112 374.883 146.103 374.472 146.084C374.061 146.065 373.66 146.042 373.268 146.014C372.885 145.986 372.535 145.953 372.218 145.916V144.894C372.554 144.922 372.904 144.95 373.268 144.978C373.641 145.006 374.001 145.029 374.346 145.048C374.701 145.067 374.999 145.076 375.242 145.076C375.737 145.076 376.133 145.057 376.432 145.02C376.731 144.973 376.983 144.889 377.188 144.768C377.328 144.684 377.431 144.572 377.496 144.432C377.561 144.292 377.599 144.129 377.608 143.942C377.627 143.755 377.636 143.555 377.636 143.34C377.636 143.023 377.627 142.766 377.608 142.57C377.589 142.374 377.538 142.225 377.454 142.122C377.379 142.01 377.253 141.931 377.076 141.884C376.899 141.828 376.661 141.786 376.362 141.758L373.968 141.492C373.52 141.436 373.161 141.343 372.89 141.212C372.619 141.072 372.414 140.899 372.274 140.694C372.143 140.479 372.055 140.227 372.008 139.938C371.961 139.639 371.938 139.308 371.938 138.944C371.938 138.356 372.013 137.885 372.162 137.53C372.321 137.175 372.549 136.905 372.848 136.718C373.147 136.531 373.506 136.41 373.926 136.354C374.355 136.289 374.845 136.256 375.396 136.256C375.751 136.256 376.115 136.265 376.488 136.284C376.861 136.303 377.211 136.331 377.538 136.368C377.874 136.396 378.149 136.433 378.364 136.48V137.474C378.121 137.437 377.841 137.404 377.524 137.376C377.207 137.348 376.88 137.329 376.544 137.32C376.217 137.301 375.905 137.292 375.606 137.292C375.093 137.292 374.677 137.315 374.36 137.362C374.043 137.409 373.791 137.493 373.604 137.614C373.399 137.735 373.268 137.908 373.212 138.132C373.165 138.347 373.142 138.608 373.142 138.916C373.142 139.28 373.165 139.565 373.212 139.77C373.268 139.966 373.38 140.106 373.548 140.19C373.725 140.265 373.987 140.321 374.332 140.358L376.67 140.624C377.006 140.652 377.3 140.699 377.552 140.764C377.813 140.82 378.037 140.918 378.224 141.058C378.411 141.198 378.551 141.399 378.644 141.66C378.7 141.791 378.742 141.935 378.77 142.094C378.798 142.253 378.817 142.43 378.826 142.626C378.845 142.813 378.854 143.023 378.854 143.256C378.854 143.788 378.803 144.231 378.7 144.586C378.597 144.931 378.453 145.207 378.266 145.412C378.079 145.617 377.851 145.771 377.58 145.874C377.309 145.977 377.006 146.042 376.67 146.07C376.343 146.098 375.989 146.112 375.606 146.112ZM381.46 146V139.826H380.018V138.86H381.46V136.788H382.594V138.86H384.302V139.826H382.594V146H381.46ZM385.876 146V138.86H386.898L386.954 140.232H387.038C387.159 139.831 387.332 139.523 387.556 139.308C387.78 139.093 388.051 138.949 388.368 138.874C388.685 138.79 389.035 138.748 389.418 138.748V139.868C388.774 139.868 388.279 139.971 387.934 140.176C387.589 140.381 387.351 140.699 387.22 141.128C387.089 141.557 387.024 142.099 387.024 142.752V146H385.876ZM390.989 136.844V135.598H392.207V136.844H390.989ZM391.017 146V138.86H392.165V146H391.017ZM394.571 146V135.598H395.719V141.898H396.615L399.135 138.86H400.423L397.525 142.318L400.465 146H399.135L396.615 142.878H395.719V146H394.571ZM404.428 146.112C403.85 146.112 403.365 146.075 402.973 146C402.59 145.925 402.282 145.804 402.049 145.636C401.815 145.459 401.638 145.23 401.517 144.95C401.395 144.661 401.316 144.311 401.279 143.9C401.241 143.489 401.223 143.004 401.223 142.444C401.223 141.781 401.251 141.217 401.307 140.75C401.363 140.274 401.489 139.891 401.685 139.602C401.89 139.303 402.207 139.089 402.637 138.958C403.066 138.818 403.645 138.748 404.373 138.748C404.923 138.748 405.371 138.79 405.717 138.874C406.071 138.958 406.351 139.089 406.557 139.266C406.762 139.443 406.911 139.681 407.005 139.98C407.107 140.269 407.173 140.619 407.201 141.03C407.229 141.431 407.243 141.898 407.243 142.43V142.808H402.357C402.357 143.293 402.38 143.69 402.427 143.998C402.473 144.306 402.567 144.544 402.707 144.712C402.856 144.88 403.085 144.997 403.393 145.062C403.71 145.127 404.139 145.16 404.681 145.16C404.905 145.16 405.152 145.155 405.423 145.146C405.693 145.127 405.964 145.104 406.235 145.076C406.505 145.048 406.748 145.02 406.963 144.992V145.916C406.767 145.953 406.524 145.986 406.235 146.014C405.955 146.042 405.656 146.065 405.339 146.084C405.031 146.103 404.727 146.112 404.428 146.112ZM406.137 142.234V141.856C406.137 141.371 406.109 140.988 406.053 140.708C405.997 140.419 405.899 140.204 405.759 140.064C405.628 139.915 405.446 139.817 405.213 139.77C404.979 139.723 404.69 139.7 404.345 139.7C403.897 139.7 403.542 139.733 403.281 139.798C403.019 139.854 402.823 139.961 402.693 140.12C402.562 140.279 402.473 140.507 402.427 140.806C402.38 141.105 402.357 141.501 402.357 141.996H406.403L406.137 142.234ZM413.234 146V139.826H411.792V138.86H413.234V136.788H414.368V138.86H416.076V139.826H414.368V146H413.234ZM417.649 146V135.598H418.797V139.798H418.867C418.961 139.602 419.096 139.425 419.273 139.266C419.451 139.107 419.693 138.986 420.001 138.902C420.309 138.809 420.701 138.762 421.177 138.762C421.7 138.762 422.12 138.818 422.437 138.93C422.764 139.033 423.011 139.196 423.179 139.42C423.357 139.644 423.473 139.933 423.529 140.288C423.585 140.633 423.613 141.049 423.613 141.534V146H422.479V141.926C422.479 141.441 422.456 141.058 422.409 140.778C422.372 140.489 422.293 140.274 422.171 140.134C422.05 139.985 421.873 139.887 421.639 139.84C421.406 139.793 421.098 139.77 420.715 139.77C420.258 139.77 419.899 139.831 419.637 139.952C419.376 140.064 419.185 140.232 419.063 140.456C418.942 140.671 418.867 140.937 418.839 141.254C418.811 141.562 418.797 141.917 418.797 142.318V146H417.649ZM428.942 146.112C428.364 146.112 427.878 146.075 427.486 146C427.104 145.925 426.796 145.804 426.562 145.636C426.329 145.459 426.152 145.23 426.03 144.95C425.909 144.661 425.83 144.311 425.792 143.9C425.755 143.489 425.736 143.004 425.736 142.444C425.736 141.781 425.764 141.217 425.82 140.75C425.876 140.274 426.002 139.891 426.198 139.602C426.404 139.303 426.721 139.089 427.15 138.958C427.58 138.818 428.158 138.748 428.886 138.748C429.437 138.748 429.885 138.79 430.23 138.874C430.585 138.958 430.865 139.089 431.07 139.266C431.276 139.443 431.425 139.681 431.518 139.98C431.621 140.269 431.686 140.619 431.714 141.03C431.742 141.431 431.756 141.898 431.756 142.43V142.808H426.87C426.87 143.293 426.894 143.69 426.94 143.998C426.987 144.306 427.08 144.544 427.22 144.712C427.37 144.88 427.598 144.997 427.906 145.062C428.224 145.127 428.653 145.16 429.194 145.16C429.418 145.16 429.666 145.155 429.936 145.146C430.207 145.127 430.478 145.104 430.748 145.076C431.019 145.048 431.262 145.02 431.476 144.992V145.916C431.28 145.953 431.038 145.986 430.748 146.014C430.468 146.042 430.17 146.065 429.852 146.084C429.544 146.103 429.241 146.112 428.942 146.112ZM430.65 142.234V141.856C430.65 141.371 430.622 140.988 430.566 140.708C430.51 140.419 430.412 140.204 430.272 140.064C430.142 139.915 429.96 139.817 429.726 139.77C429.493 139.723 429.204 139.7 428.858 139.7C428.41 139.7 428.056 139.733 427.794 139.798C427.533 139.854 427.337 139.961 427.206 140.12C427.076 140.279 426.987 140.507 426.94 140.806C426.894 141.105 426.87 141.501 426.87 141.996H430.916L430.65 142.234ZM440.057 146.112C439.479 146.112 438.993 146.075 438.601 146C438.219 145.925 437.911 145.804 437.677 145.636C437.444 145.459 437.267 145.23 437.145 144.95C437.024 144.661 436.945 144.311 436.907 143.9C436.87 143.489 436.851 143.004 436.851 142.444C436.851 141.781 436.879 141.217 436.935 140.75C436.991 140.274 437.117 139.891 437.313 139.602C437.519 139.303 437.836 139.089 438.265 138.958C438.695 138.818 439.273 138.748 440.001 138.748C440.552 138.748 441 138.79 441.345 138.874C441.7 138.958 441.98 139.089 442.185 139.266C442.391 139.443 442.54 139.681 442.633 139.98C442.736 140.269 442.801 140.619 442.829 141.03C442.857 141.431 442.871 141.898 442.871 142.43V142.808H437.985C437.985 143.293 438.009 143.69 438.055 143.998C438.102 144.306 438.195 144.544 438.335 144.712C438.485 144.88 438.713 144.997 439.021 145.062C439.339 145.127 439.768 145.16 440.309 145.16C440.533 145.16 440.781 145.155 441.051 145.146C441.322 145.127 441.593 145.104 441.863 145.076C442.134 145.048 442.377 145.02 442.591 144.992V145.916C442.395 145.953 442.153 145.986 441.863 146.014C441.583 146.042 441.285 146.065 440.967 146.084C440.659 146.103 440.356 146.112 440.057 146.112ZM441.765 142.234V141.856C441.765 141.371 441.737 140.988 441.681 140.708C441.625 140.419 441.527 140.204 441.387 140.064C441.257 139.915 441.075 139.817 440.841 139.77C440.608 139.723 440.319 139.7 439.973 139.7C439.525 139.7 439.171 139.733 438.909 139.798C438.648 139.854 438.452 139.961 438.321 140.12C438.191 140.279 438.102 140.507 438.055 140.806C438.009 141.105 437.985 141.501 437.985 141.996H442.031L441.765 142.234ZM444.966 146V138.86H446.002L446.044 139.882H446.128C446.23 139.658 446.37 139.462 446.548 139.294C446.734 139.126 446.982 138.995 447.29 138.902C447.607 138.799 448.008 138.748 448.494 138.748C449.026 138.748 449.45 138.804 449.768 138.916C450.085 139.028 450.328 139.196 450.496 139.42C450.673 139.644 450.79 139.933 450.846 140.288C450.902 140.633 450.93 141.049 450.93 141.534V146H449.796V141.926C449.796 141.441 449.772 141.058 449.726 140.778C449.688 140.489 449.609 140.274 449.488 140.134C449.366 139.985 449.189 139.887 448.956 139.84C448.722 139.793 448.414 139.77 448.032 139.77C447.574 139.77 447.215 139.831 446.954 139.952C446.692 140.064 446.501 140.232 446.38 140.456C446.258 140.671 446.184 140.937 446.156 141.254C446.128 141.562 446.114 141.917 446.114 142.318V146H444.966ZM456.259 146.112C455.68 146.112 455.195 146.075 454.803 146C454.42 145.925 454.112 145.804 453.879 145.636C453.645 145.459 453.468 145.23 453.347 144.95C453.225 144.661 453.146 144.311 453.109 143.9C453.071 143.489 453.053 143.004 453.053 142.444C453.053 141.781 453.081 141.217 453.137 140.75C453.193 140.274 453.319 139.891 453.515 139.602C453.72 139.303 454.037 139.089 454.467 138.958C454.896 138.818 455.475 138.748 456.203 138.748C456.753 138.748 457.201 138.79 457.547 138.874C457.901 138.958 458.181 139.089 458.387 139.266C458.592 139.443 458.741 139.681 458.835 139.98C458.937 140.269 459.003 140.619 459.031 141.03C459.059 141.431 459.073 141.898 459.073 142.43V142.808H454.187C454.187 143.293 454.21 143.69 454.257 143.998C454.303 144.306 454.397 144.544 454.537 144.712C454.686 144.88 454.915 144.997 455.223 145.062C455.54 145.127 455.969 145.16 456.511 145.16C456.735 145.16 456.982 145.155 457.253 145.146C457.523 145.127 457.794 145.104 458.065 145.076C458.335 145.048 458.578 145.02 458.793 144.992V145.916C458.597 145.953 458.354 145.986 458.065 146.014C457.785 146.042 457.486 146.065 457.169 146.084C456.861 146.103 456.557 146.112 456.259 146.112ZM457.967 142.234V141.856C457.967 141.371 457.939 140.988 457.883 140.708C457.827 140.419 457.729 140.204 457.589 140.064C457.458 139.915 457.276 139.817 457.043 139.77C456.809 139.723 456.52 139.7 456.175 139.7C455.727 139.7 455.372 139.733 455.111 139.798C454.849 139.854 454.653 139.961 454.523 140.12C454.392 140.279 454.303 140.507 454.257 140.806C454.21 141.105 454.187 141.501 454.187 141.996H458.233L457.967 142.234ZM461.167 146V138.86H462.203L462.245 139.882H462.329C462.413 139.658 462.539 139.462 462.707 139.294C462.884 139.126 463.113 138.995 463.393 138.902C463.682 138.799 464.051 138.748 464.499 138.748C465.134 138.748 465.605 138.841 465.913 139.028C466.221 139.205 466.436 139.49 466.557 139.882H466.641C466.734 139.658 466.87 139.462 467.047 139.294C467.224 139.126 467.462 138.995 467.761 138.902C468.06 138.799 468.428 138.748 468.867 138.748C469.511 138.748 469.992 138.846 470.309 139.042C470.626 139.238 470.836 139.541 470.939 139.952C471.042 140.363 471.093 140.89 471.093 141.534V146H469.959V141.926C469.959 141.441 469.94 141.058 469.903 140.778C469.866 140.489 469.796 140.274 469.693 140.134C469.59 139.985 469.436 139.887 469.231 139.84C469.026 139.793 468.75 139.77 468.405 139.77C468.004 139.77 467.686 139.826 467.453 139.938C467.22 140.041 467.047 140.199 466.935 140.414C466.832 140.629 466.767 140.895 466.739 141.212C466.711 141.529 466.697 141.898 466.697 142.318V146H465.563V141.926C465.563 141.441 465.544 141.058 465.507 140.778C465.47 140.489 465.4 140.274 465.297 140.134C465.194 139.985 465.04 139.887 464.835 139.84C464.63 139.793 464.354 139.77 464.009 139.77C463.608 139.77 463.29 139.831 463.057 139.952C462.824 140.064 462.656 140.227 462.553 140.442C462.45 140.657 462.385 140.923 462.357 141.24C462.329 141.557 462.315 141.917 462.315 142.318V146H461.167ZM476.257 148.884C475.986 148.884 475.701 148.875 475.403 148.856C475.113 148.847 474.833 148.833 474.563 148.814C474.301 148.805 474.068 148.786 473.863 148.758V147.848C474.171 147.857 474.451 147.867 474.703 147.876C474.964 147.895 475.202 147.904 475.417 147.904C475.641 147.913 475.841 147.918 476.019 147.918C476.56 147.918 476.985 147.876 477.293 147.792C477.61 147.708 477.843 147.568 477.993 147.372C478.142 147.185 478.235 146.933 478.273 146.616C478.319 146.299 478.343 145.911 478.343 145.454V145.034H478.259C478.184 145.221 478.058 145.393 477.881 145.552C477.703 145.711 477.461 145.837 477.153 145.93C476.845 146.023 476.443 146.07 475.949 146.07C475.426 146.07 475.001 146.019 474.675 145.916C474.357 145.804 474.115 145.636 473.947 145.412C473.779 145.179 473.662 144.889 473.597 144.544C473.541 144.199 473.513 143.788 473.513 143.312V138.86H474.661V142.906C474.661 143.391 474.679 143.779 474.717 144.068C474.754 144.357 474.833 144.577 474.955 144.726C475.085 144.866 475.267 144.959 475.501 145.006C475.734 145.053 476.037 145.076 476.411 145.076C476.877 145.076 477.241 145.02 477.503 144.908C477.764 144.787 477.951 144.614 478.063 144.39C478.184 144.166 478.259 143.9 478.287 143.592C478.324 143.275 478.343 142.92 478.343 142.528V138.86H479.477V145.118C479.477 145.799 479.439 146.378 479.365 146.854C479.299 147.339 479.155 147.727 478.931 148.016C478.716 148.315 478.394 148.534 477.965 148.674C477.535 148.814 476.966 148.884 476.257 148.884ZM486.7 146L484.418 138.86H485.608L487.344 144.614H487.442L489.178 138.86H490.256L491.992 144.614H492.104L493.826 138.86H494.974L492.692 146H491.376L489.738 140.736H489.64L488.016 146H486.7ZM496.604 136.844V135.598H497.822V136.844H496.604ZM496.632 146V138.86H497.78V146H496.632ZM500.788 146V139.826H499.346V138.86H500.788V136.788H501.922V138.86H503.63V139.826H501.922V146H500.788ZM505.204 146V135.598H506.352V139.798H506.422C506.515 139.602 506.651 139.425 506.828 139.266C507.005 139.107 507.248 138.986 507.556 138.902C507.864 138.809 508.256 138.762 508.732 138.762C509.255 138.762 509.675 138.818 509.992 138.93C510.319 139.033 510.566 139.196 510.734 139.42C510.911 139.644 511.028 139.933 511.084 140.288C511.14 140.633 511.168 141.049 511.168 141.534V146H510.034V141.926C510.034 141.441 510.011 141.058 509.964 140.778C509.927 140.489 509.847 140.274 509.726 140.134C509.605 139.985 509.427 139.887 509.194 139.84C508.961 139.793 508.653 139.77 508.27 139.77C507.813 139.77 507.453 139.831 507.192 139.952C506.931 140.064 506.739 140.232 506.618 140.456C506.497 140.671 506.422 140.937 506.394 141.254C506.366 141.562 506.352 141.917 506.352 142.318V146H505.204ZM519.218 146.112C518.704 146.112 518.275 146.056 517.93 145.944C517.594 145.832 517.328 145.641 517.132 145.37C516.936 145.09 516.796 144.712 516.712 144.236C516.628 143.76 516.586 143.163 516.586 142.444C516.586 141.716 516.623 141.114 516.698 140.638C516.782 140.153 516.922 139.775 517.118 139.504C517.314 139.233 517.58 139.042 517.916 138.93C518.252 138.809 518.676 138.748 519.19 138.748C519.572 138.748 519.913 138.781 520.212 138.846C520.51 138.902 520.767 139.005 520.982 139.154C521.206 139.303 521.383 139.509 521.514 139.77H521.584V135.598H522.732V146H521.71L521.654 144.978H521.57C521.439 145.305 521.248 145.552 520.996 145.72C520.753 145.879 520.478 145.981 520.17 146.028C519.862 146.084 519.544 146.112 519.218 146.112ZM519.666 145.104C520.142 145.104 520.52 145.039 520.8 144.908C521.08 144.777 521.276 144.572 521.388 144.292C521.481 144.031 521.537 143.746 521.556 143.438C521.574 143.13 521.584 142.766 521.584 142.346C521.584 142.001 521.574 141.688 521.556 141.408C521.537 141.119 521.486 140.867 521.402 140.652C521.28 140.335 521.08 140.111 520.8 139.98C520.52 139.84 520.132 139.77 519.638 139.77C519.218 139.77 518.882 139.798 518.63 139.854C518.378 139.91 518.186 140.031 518.056 140.218C517.925 140.395 517.836 140.661 517.79 141.016C517.743 141.361 517.72 141.833 517.72 142.43C517.72 143.027 517.743 143.503 517.79 143.858C517.836 144.213 517.925 144.479 518.056 144.656C518.186 144.833 518.378 144.955 518.63 145.02C518.891 145.076 519.236 145.104 519.666 145.104ZM527.574 146.112C527.051 146.112 526.626 146.056 526.3 145.944C525.982 145.832 525.74 145.664 525.572 145.44C525.404 145.216 525.287 144.931 525.222 144.586C525.166 144.231 525.138 143.811 525.138 143.326V138.86H526.286V142.934C526.286 143.41 526.304 143.793 526.342 144.082C526.379 144.371 526.458 144.591 526.58 144.74C526.71 144.88 526.892 144.973 527.126 145.02C527.359 145.067 527.662 145.09 528.036 145.09C528.502 145.09 528.866 145.034 529.128 144.922C529.389 144.801 529.576 144.633 529.688 144.418C529.809 144.194 529.884 143.928 529.912 143.62C529.949 143.303 529.968 142.943 529.968 142.542V138.86H531.102V146H530.08L530.038 144.978H529.94C529.846 145.202 529.706 145.398 529.52 145.566C529.342 145.734 529.095 145.869 528.778 145.972C528.46 146.065 528.059 146.112 527.574 146.112ZM535.436 146.112C534.914 146.112 534.475 146.051 534.12 145.93C533.775 145.809 533.514 145.599 533.336 145.3C533.168 145.001 533.084 144.581 533.084 144.04C533.084 143.499 533.145 143.074 533.266 142.766C533.397 142.449 533.621 142.225 533.938 142.094C534.256 141.963 534.699 141.898 535.268 141.898C535.362 141.898 535.506 141.903 535.702 141.912C535.908 141.912 536.141 141.917 536.402 141.926C536.664 141.926 536.925 141.931 537.186 141.94C537.457 141.94 537.704 141.945 537.928 141.954V141.506C537.928 141.086 537.9 140.759 537.844 140.526C537.798 140.283 537.695 140.106 537.536 139.994C537.378 139.873 537.154 139.798 536.864 139.77C536.584 139.733 536.211 139.714 535.744 139.714C535.539 139.714 535.296 139.723 535.016 139.742C534.736 139.751 534.461 139.77 534.19 139.798C533.929 139.817 533.719 139.84 533.56 139.868V138.944C533.915 138.879 534.312 138.832 534.75 138.804C535.198 138.767 535.66 138.748 536.136 138.748C536.64 138.748 537.065 138.781 537.41 138.846C537.765 138.902 538.05 138.995 538.264 139.126C538.488 139.257 538.656 139.429 538.768 139.644C538.88 139.859 538.955 140.12 538.992 140.428C539.039 140.736 539.062 141.095 539.062 141.506V146H538.04L537.998 144.992H537.914C537.765 145.319 537.55 145.566 537.27 145.734C537 145.893 536.701 145.995 536.374 146.042C536.048 146.089 535.735 146.112 535.436 146.112ZM535.856 145.174C536.127 145.174 536.379 145.16 536.612 145.132C536.846 145.095 537.051 145.029 537.228 144.936C537.406 144.843 537.546 144.703 537.648 144.516C537.751 144.32 537.821 144.11 537.858 143.886C537.905 143.653 537.928 143.382 537.928 143.074V142.71H535.548C535.184 142.71 534.904 142.738 534.708 142.794C534.512 142.85 534.377 142.967 534.302 143.144C534.237 143.321 534.204 143.587 534.204 143.942C534.204 144.287 534.246 144.549 534.33 144.726C534.414 144.903 534.573 145.025 534.806 145.09C535.049 145.146 535.399 145.174 535.856 145.174ZM541.489 146V135.598H542.637V146H541.489ZM550.257 146.112C549.734 146.112 549.295 146.051 548.941 145.93C548.595 145.809 548.334 145.599 548.157 145.3C547.989 145.001 547.905 144.581 547.905 144.04C547.905 143.499 547.965 143.074 548.087 142.766C548.217 142.449 548.441 142.225 548.759 142.094C549.076 141.963 549.519 141.898 550.089 141.898C550.182 141.898 550.327 141.903 550.523 141.912C550.728 141.912 550.961 141.917 551.223 141.926C551.484 141.926 551.745 141.931 552.007 141.94C552.277 141.94 552.525 141.945 552.749 141.954V141.506C552.749 141.086 552.721 140.759 552.665 140.526C552.618 140.283 552.515 140.106 552.357 139.994C552.198 139.873 551.974 139.798 551.685 139.77C551.405 139.733 551.031 139.714 550.565 139.714C550.359 139.714 550.117 139.723 549.837 139.742C549.557 139.751 549.281 139.77 549.011 139.798C548.749 139.817 548.539 139.84 548.381 139.868V138.944C548.735 138.879 549.132 138.832 549.571 138.804C550.019 138.767 550.481 138.748 550.957 138.748C551.461 138.748 551.885 138.781 552.231 138.846C552.585 138.902 552.87 138.995 553.085 139.126C553.309 139.257 553.477 139.429 553.589 139.644C553.701 139.859 553.775 140.12 553.813 140.428C553.859 140.736 553.883 141.095 553.883 141.506V146H552.861L552.819 144.992H552.735C552.585 145.319 552.371 145.566 552.091 145.734C551.82 145.893 551.521 145.995 551.195 146.042C550.868 146.089 550.555 146.112 550.257 146.112ZM550.677 145.174C550.947 145.174 551.199 145.16 551.433 145.132C551.666 145.095 551.871 145.029 552.049 144.936C552.226 144.843 552.366 144.703 552.469 144.516C552.571 144.32 552.641 144.11 552.679 143.886C552.725 143.653 552.749 143.382 552.749 143.074V142.71H550.369C550.005 142.71 549.725 142.738 549.529 142.794C549.333 142.85 549.197 142.967 549.123 143.144C549.057 143.321 549.025 143.587 549.025 143.942C549.025 144.287 549.067 144.549 549.151 144.726C549.235 144.903 549.393 145.025 549.627 145.09C549.869 145.146 550.219 145.174 550.677 145.174ZM556.309 146V138.86H557.331L557.387 140.232H557.471C557.593 139.831 557.765 139.523 557.989 139.308C558.213 139.093 558.484 138.949 558.801 138.874C559.119 138.79 559.469 138.748 559.851 138.748V139.868C559.207 139.868 558.713 139.971 558.367 140.176C558.022 140.381 557.784 140.699 557.653 141.128C557.523 141.557 557.457 142.099 557.457 142.752V146H556.309ZM563.986 146.112C563.444 146.112 562.996 146.065 562.642 145.972C562.296 145.879 562.016 145.739 561.802 145.552C561.596 145.365 561.442 145.127 561.34 144.838C561.237 144.549 561.167 144.203 561.13 143.802C561.102 143.401 561.088 142.943 561.088 142.43C561.088 141.898 561.106 141.431 561.144 141.03C561.19 140.629 561.27 140.283 561.382 139.994C561.503 139.695 561.666 139.457 561.872 139.28C562.086 139.103 562.362 138.972 562.698 138.888C563.034 138.795 563.449 138.748 563.944 138.748C564.27 138.748 564.611 138.767 564.966 138.804C565.33 138.832 565.628 138.874 565.862 138.93V139.854C565.647 139.817 565.381 139.784 565.064 139.756C564.756 139.728 564.476 139.714 564.224 139.714C563.785 139.714 563.43 139.751 563.16 139.826C562.898 139.901 562.698 140.036 562.558 140.232C562.427 140.428 562.338 140.703 562.292 141.058C562.245 141.413 562.222 141.87 562.222 142.43C562.222 142.999 562.245 143.466 562.292 143.83C562.338 144.185 562.432 144.46 562.572 144.656C562.721 144.843 562.926 144.973 563.188 145.048C563.458 145.113 563.813 145.146 564.252 145.146C564.513 145.146 564.798 145.132 565.106 145.104C565.414 145.076 565.689 145.043 565.932 145.006V145.93C565.698 145.977 565.4 146.019 565.036 146.056C564.672 146.093 564.322 146.112 563.986 146.112ZM569.739 146.112C569.217 146.112 568.778 146.051 568.423 145.93C568.078 145.809 567.817 145.599 567.639 145.3C567.471 145.001 567.387 144.581 567.387 144.04C567.387 143.499 567.448 143.074 567.569 142.766C567.7 142.449 567.924 142.225 568.241 142.094C568.559 141.963 569.002 141.898 569.571 141.898C569.665 141.898 569.809 141.903 570.005 141.912C570.211 141.912 570.444 141.917 570.705 141.926C570.967 141.926 571.228 141.931 571.489 141.94C571.76 141.94 572.007 141.945 572.231 141.954V141.506C572.231 141.086 572.203 140.759 572.147 140.526C572.101 140.283 571.998 140.106 571.839 139.994C571.681 139.873 571.457 139.798 571.167 139.77C570.887 139.733 570.514 139.714 570.047 139.714C569.842 139.714 569.599 139.723 569.319 139.742C569.039 139.751 568.764 139.77 568.493 139.798C568.232 139.817 568.022 139.84 567.863 139.868V138.944C568.218 138.879 568.615 138.832 569.053 138.804C569.501 138.767 569.963 138.748 570.439 138.748C570.943 138.748 571.368 138.781 571.713 138.846C572.068 138.902 572.353 138.995 572.567 139.126C572.791 139.257 572.959 139.429 573.071 139.644C573.183 139.859 573.258 140.12 573.295 140.428C573.342 140.736 573.365 141.095 573.365 141.506V146H572.343L572.301 144.992H572.217C572.068 145.319 571.853 145.566 571.573 145.734C571.303 145.893 571.004 145.995 570.677 146.042C570.351 146.089 570.038 146.112 569.739 146.112ZM570.159 145.174C570.43 145.174 570.682 145.16 570.915 145.132C571.149 145.095 571.354 145.029 571.531 144.936C571.709 144.843 571.849 144.703 571.951 144.516C572.054 144.32 572.124 144.11 572.161 143.886C572.208 143.653 572.231 143.382 572.231 143.074V142.71H569.851C569.487 142.71 569.207 142.738 569.011 142.794C568.815 142.85 568.68 142.967 568.605 143.144C568.54 143.321 568.507 143.587 568.507 143.942C568.507 144.287 568.549 144.549 568.633 144.726C568.717 144.903 568.876 145.025 569.109 145.09C569.352 145.146 569.702 145.174 570.159 145.174ZM575.792 146V138.86H576.828L576.87 139.882H576.954C577.057 139.658 577.197 139.462 577.374 139.294C577.561 139.126 577.808 138.995 578.116 138.902C578.433 138.799 578.835 138.748 579.32 138.748C579.852 138.748 580.277 138.804 580.594 138.916C580.911 139.028 581.154 139.196 581.322 139.42C581.499 139.644 581.616 139.933 581.672 140.288C581.728 140.633 581.756 141.049 581.756 141.534V146H580.622V141.926C580.622 141.441 580.599 141.058 580.552 140.778C580.515 140.489 580.435 140.274 580.314 140.134C580.193 139.985 580.015 139.887 579.782 139.84C579.549 139.793 579.241 139.77 578.858 139.77C578.401 139.77 578.041 139.831 577.78 139.952C577.519 140.064 577.327 140.232 577.206 140.456C577.085 140.671 577.01 140.937 576.982 141.254C576.954 141.562 576.94 141.917 576.94 142.318V146H575.792ZM587.085 146.112C586.506 146.112 586.021 146.075 585.629 146C585.246 145.925 584.938 145.804 584.705 145.636C584.471 145.459 584.294 145.23 584.173 144.95C584.051 144.661 583.972 144.311 583.935 143.9C583.897 143.489 583.879 143.004 583.879 142.444C583.879 141.781 583.907 141.217 583.963 140.75C584.019 140.274 584.145 139.891 584.341 139.602C584.546 139.303 584.863 139.089 585.293 138.958C585.722 138.818 586.301 138.748 587.029 138.748C587.579 138.748 588.027 138.79 588.373 138.874C588.727 138.958 589.007 139.089 589.213 139.266C589.418 139.443 589.567 139.681 589.661 139.98C589.763 140.269 589.829 140.619 589.857 141.03C589.885 141.431 589.899 141.898 589.899 142.43V142.808H585.013C585.013 143.293 585.036 143.69 585.083 143.998C585.129 144.306 585.223 144.544 585.363 144.712C585.512 144.88 585.741 144.997 586.049 145.062C586.366 145.127 586.795 145.16 587.337 145.16C587.561 145.16 587.808 145.155 588.079 145.146C588.349 145.127 588.62 145.104 588.891 145.076C589.161 145.048 589.404 145.02 589.619 144.992V145.916C589.423 145.953 589.18 145.986 588.891 146.014C588.611 146.042 588.312 146.065 587.995 146.084C587.687 146.103 587.383 146.112 587.085 146.112ZM588.793 142.234V141.856C588.793 141.371 588.765 140.988 588.709 140.708C588.653 140.419 588.555 140.204 588.415 140.064C588.284 139.915 588.102 139.817 587.869 139.77C587.635 139.723 587.346 139.7 587.001 139.7C586.553 139.7 586.198 139.733 585.937 139.798C585.675 139.854 585.479 139.961 585.349 140.12C585.218 140.279 585.129 140.507 585.083 140.806C585.036 141.105 585.013 141.501 585.013 141.996H589.059L588.793 142.234ZM598.802 146.112C598.475 146.112 598.158 146.084 597.85 146.028C597.542 145.981 597.267 145.879 597.024 145.72C596.781 145.552 596.59 145.305 596.45 144.978H596.366L596.324 146H595.288V135.598H596.436V139.77H596.506C596.637 139.509 596.809 139.303 597.024 139.154C597.248 139.005 597.509 138.902 597.808 138.846C598.107 138.781 598.447 138.748 598.83 138.748C599.343 138.748 599.768 138.809 600.104 138.93C600.44 139.042 600.706 139.233 600.902 139.504C601.098 139.775 601.233 140.148 601.308 140.624C601.392 141.1 601.434 141.702 601.434 142.43C601.434 143.158 601.392 143.76 601.308 144.236C601.224 144.712 601.084 145.085 600.888 145.356C600.692 145.627 600.421 145.823 600.076 145.944C599.74 146.056 599.315 146.112 598.802 146.112ZM598.354 145.104C598.783 145.104 599.124 145.076 599.376 145.02C599.637 144.955 599.833 144.833 599.964 144.656C600.095 144.479 600.183 144.213 600.23 143.858C600.277 143.503 600.3 143.027 600.3 142.43C600.3 141.833 600.277 141.361 600.23 141.016C600.183 140.661 600.095 140.395 599.964 140.218C599.833 140.031 599.637 139.91 599.376 139.854C599.124 139.798 598.783 139.77 598.354 139.77C597.897 139.77 597.533 139.831 597.262 139.952C596.991 140.064 596.8 140.246 596.688 140.498C596.576 140.741 596.506 141.021 596.478 141.338C596.45 141.646 596.436 142.01 596.436 142.43C596.436 142.841 596.445 143.205 596.464 143.522C596.492 143.83 596.562 144.105 596.674 144.348C596.795 144.609 596.991 144.801 597.262 144.922C597.533 145.043 597.897 145.104 598.354 145.104ZM605.982 146.112C605.459 146.112 605.034 146.056 604.708 145.944C604.39 145.832 604.148 145.664 603.98 145.44C603.812 145.216 603.695 144.931 603.63 144.586C603.574 144.231 603.546 143.811 603.546 143.326V138.86H604.694V142.934C604.694 143.41 604.712 143.793 604.75 144.082C604.787 144.371 604.866 144.591 604.988 144.74C605.118 144.88 605.3 144.973 605.534 145.02C605.767 145.067 606.07 145.09 606.444 145.09C606.91 145.09 607.274 145.034 607.536 144.922C607.797 144.801 607.984 144.633 608.096 144.418C608.217 144.194 608.292 143.928 608.32 143.62C608.357 143.303 608.376 142.943 608.376 142.542V138.86H609.51V146H608.488L608.446 144.978H608.348C608.254 145.202 608.114 145.398 607.928 145.566C607.75 145.734 607.503 145.869 607.186 145.972C606.868 146.065 606.467 146.112 605.982 146.112ZM611.927 146V135.598H613.075V146H611.927ZM615.481 146V135.598H616.629V146H615.481ZM621.948 146.112C621.369 146.112 620.884 146.075 620.492 146C620.109 145.925 619.801 145.804 619.568 145.636C619.335 145.459 619.157 145.23 619.036 144.95C618.915 144.661 618.835 144.311 618.798 143.9C618.761 143.489 618.742 143.004 618.742 142.444C618.742 141.781 618.77 141.217 618.826 140.75C618.882 140.274 619.008 139.891 619.204 139.602C619.409 139.303 619.727 139.089 620.156 138.958C620.585 138.818 621.164 138.748 621.892 138.748C622.443 138.748 622.891 138.79 623.236 138.874C623.591 138.958 623.871 139.089 624.076 139.266C624.281 139.443 624.431 139.681 624.524 139.98C624.627 140.269 624.692 140.619 624.72 141.03C624.748 141.431 624.762 141.898 624.762 142.43V142.808H619.876C619.876 143.293 619.899 143.69 619.946 143.998C619.993 144.306 620.086 144.544 620.226 144.712C620.375 144.88 620.604 144.997 620.912 145.062C621.229 145.127 621.659 145.16 622.2 145.16C622.424 145.16 622.671 145.155 622.942 145.146C623.213 145.127 623.483 145.104 623.754 145.076C624.025 145.048 624.267 145.02 624.482 144.992V145.916C624.286 145.953 624.043 145.986 623.754 146.014C623.474 146.042 623.175 146.065 622.858 146.084C622.55 146.103 622.247 146.112 621.948 146.112ZM623.656 142.234V141.856C623.656 141.371 623.628 140.988 623.572 140.708C623.516 140.419 623.418 140.204 623.278 140.064C623.147 139.915 622.965 139.817 622.732 139.77C622.499 139.723 622.209 139.7 621.864 139.7C621.416 139.7 621.061 139.733 620.8 139.798C620.539 139.854 620.343 139.961 620.212 140.12C620.081 140.279 619.993 140.507 619.946 140.806C619.899 141.105 619.876 141.501 619.876 141.996H623.922L623.656 142.234ZM627.458 146V139.826H626.016V138.86H627.458V136.788H628.592V138.86H630.3V139.826H628.592V146H627.458ZM634.254 146.112C633.983 146.112 633.694 146.103 633.386 146.084C633.078 146.065 632.775 146.042 632.476 146.014C632.177 145.995 631.907 145.967 631.664 145.93V145.006C631.888 145.025 632.103 145.043 632.308 145.062C632.523 145.081 632.733 145.099 632.938 145.118C633.143 145.127 633.349 145.137 633.554 145.146C633.759 145.146 633.969 145.146 634.184 145.146C634.669 145.146 635.019 145.113 635.234 145.048C635.458 144.973 635.603 144.852 635.668 144.684C635.743 144.516 635.78 144.297 635.78 144.026C635.78 143.718 635.752 143.494 635.696 143.354C635.649 143.214 635.561 143.125 635.43 143.088C635.309 143.041 635.122 143.004 634.87 142.976L633.022 142.766C632.583 142.719 632.252 142.626 632.028 142.486C631.804 142.337 631.65 142.127 631.566 141.856C631.482 141.585 631.44 141.245 631.44 140.834C631.44 140.367 631.505 139.994 631.636 139.714C631.767 139.434 631.953 139.224 632.196 139.084C632.439 138.944 632.733 138.855 633.078 138.818C633.423 138.771 633.811 138.748 634.24 138.748C634.483 138.748 634.739 138.757 635.01 138.776C635.281 138.795 635.547 138.818 635.808 138.846C636.069 138.874 636.293 138.907 636.48 138.944V139.868C636.237 139.831 635.99 139.803 635.738 139.784C635.495 139.756 635.243 139.737 634.982 139.728C634.73 139.719 634.473 139.714 634.212 139.714C633.857 139.714 633.554 139.733 633.302 139.77C633.05 139.807 632.859 139.901 632.728 140.05C632.607 140.199 632.546 140.447 632.546 140.792C632.546 141.063 632.565 141.268 632.602 141.408C632.649 141.539 632.737 141.632 632.868 141.688C632.999 141.735 633.181 141.772 633.414 141.8L635.346 142.01C635.729 142.047 636.027 142.122 636.242 142.234C636.466 142.337 636.625 142.523 636.718 142.794C636.821 143.065 636.872 143.471 636.872 144.012C636.872 144.46 636.816 144.824 636.704 145.104C636.601 145.375 636.438 145.585 636.214 145.734C635.99 145.883 635.715 145.981 635.388 146.028C635.061 146.084 634.683 146.112 634.254 146.112Z" fill="black"/>
<path d="M510.692 68.8071V65.9662H518.339V68.8071H510.692ZM532.466 76V59.0151L528.265 60.9191V57.9573L533.493 55.2071H535.881V76H532.466Z" fill="black"/>
<rect x="467" y="40" width="30.6" height="51" fill="#131313"/>
<rect x="467" y="40" width="15.3" height="30.6" fill="#FFA502"/>
<rect x="467" y="40" width="15.3" height="42.84" fill="#FFA502"/>
<rect x="469" y="42" width="26.6" height="38.84" stroke="#131313" stroke-width="4"/>
<rect x="467" y="78.7598" width="15.3" height="12.24" fill="#FFA502"/>
<rect x="469" y="80.7598" width="26.6" height="8.24" stroke="#131313" stroke-width="4"/>
</svg>
