<svg width="1115" height="371" viewBox="0 0 1115 371" fill="none" xmlns="http://www.w3.org/2000/svg">
<path d="M1098 300.671V325.327L1073.29 350H42.6711L18 325.329V300.671L42.6711 276H1073.33L1098 300.671Z" fill="#EA323C" stroke="black" stroke-width="10"/>
<rect x="270" y="276" width="575" height="74" fill="#FFC825"/>
<rect x="392" y="276" width="331" height="74" fill="#5AC54F"/>
<path d="M1098 300.671V325.327L1073.29 350H42.6711L18 325.329V300.671L42.6711 276H1073.33L1098 300.671Z" stroke="black" stroke-width="10"/>
<path d="M605 208L510 208L557.5 255.5L605 208Z" fill="black"/>
<path d="M520.962 211.653L557.5 248.192V211.653H520.962Z" fill="white"/>
<path d="M612.825 12H502.175L484 30.7003V140.3L502.175 159H612.825L631 140.3V30.7003L612.825 12Z" fill="white" fill-opacity="0.69" stroke="black" stroke-width="4.9"/>
<mask id="path-8-outside-1_254_51" maskUnits="userSpaceOnUse" x="531" y="45" width="54" height="82" fill="black">
<rect fill="white" x="531" y="45" width="54" height="82"/>
<path d="M558.03 49C545.311 49 535 59.461 535 72.3653V99.6247C535 112.529 545.311 122.99 558.03 122.99C570.749 122.99 581.06 112.529 581.06 99.6247V72.3653C581.06 59.461 570.749 49 558.03 49Z"/>
</mask>
<path d="M538.43 72.3653C538.43 61.3084 547.252 52.43 558.03 52.43V45.57C543.37 45.57 531.57 57.6136 531.57 72.3653H538.43ZM558.03 52.43C568.808 52.43 577.63 61.3084 577.63 72.3653H584.49C584.49 57.6136 572.69 45.57 558.03 45.57V52.43ZM577.63 99.6247C577.63 110.682 568.808 119.56 558.03 119.56V126.42C572.69 126.42 584.49 114.376 584.49 99.6247H577.63ZM558.03 119.56C547.252 119.56 538.43 110.682 538.43 99.6247H531.57C531.57 114.376 543.37 126.42 558.03 126.42V119.56ZM577.63 72.3653V99.6247H584.49V72.3653H577.63ZM538.43 99.6247V72.3653H531.57V99.6247H538.43Z" fill="black" mask="url(#path-8-outside-1_254_51)"/>
<path d="M538.838 71.5858C538.838 56.632 551.633 52.3744 558.03 52.1147V71.5858H538.838Z" fill="black"/>
<path d="M558.03 52.1147H558.275V51.8596L558.02 51.8699L558.03 52.1147ZM538.838 71.5858H538.593V71.8308H538.838V71.5858ZM558.03 71.5858V71.8308H558.275V71.5858H558.03ZM558.02 51.8699C554.783 52.0013 549.935 53.1419 545.889 56.1432C541.832 59.1528 538.593 64.027 538.593 71.5858H539.083C539.083 64.1908 542.242 59.4593 546.181 56.5367C550.132 53.6059 554.879 52.4878 558.04 52.3595L558.02 51.8699ZM538.838 71.8308H558.03V71.3408H538.838V71.8308ZM558.275 71.5858V52.1147H557.785V71.5858H558.275Z" fill="black"/>
</svg>
